<svg transform="scale(4)" version="1.1" id="_x30_634_x5F_Restaurant" xmlns="http://www.w3.org/2000/svg" xmlns:xlink="http://www.w3.org/1999/xlink" x="0px" y="0px" viewBox="0 0 500 500" xml:space="preserve" class="show_show__wrapper__graphic__5Waiy "><title>React</title><style type="text/css">
	.st0{fill:#FFFFFF;}
	.st1{fill:#00037c;}
	.st2{fill:#f7c354;}
</style><g id="character1"><g><path class="st0" d="M467.6,350.7c0,0,1.6-100.2-12.8-120.2c-14.4-20-54.5-26-71.6-2.5c-17.1,23.5-21.7,122.7-21.7,122.7"></path><path class="st1" d="M361.5,351.2C361.4,351.2,361.4,351.2,361.5,351.2c-0.3,0-0.5-0.2-0.5-0.5c0.2-4.1,4.9-99.7,21.8-123
			c7.2-9.9,19-15.4,33.2-15.4c0.1,0,0.1,0,0.2,0c15.9,0,31.3,7.1,39.1,17.9c6,8.4,10,31.2,11.9,67.9c1.4,27.3,1,52.4,1,52.6
			c0,0.3-0.2,0.5-0.5,0.5c-0.3,0-0.5-0.2-0.5-0.5c0-1,1.4-100.3-12.7-119.9c-7.6-10.6-22.6-17.4-38.3-17.5c-0.1,0-0.1,0-0.2,0
			c-13.9,0-25.3,5.3-32.4,15c-6.9,9.5-12.9,33.7-17.2,69.9c-3.3,27.4-4.5,52.3-4.5,52.5C361.9,351,361.7,351.2,361.5,351.2z"></path></g><g><path class="st2" d="M436,230.5c0,0-14.1-15-40.6-16c-26.5-1-33.9,14.3-39.9,23.6s-9.1,49.6-9.1,49.6l4.1,4.7l-4.1,45.7
			c0,0,10.2,16,47.8,15.7s54.9-3.1,54.9-3.1l-6.8-62.1C440.5,274.5,436,230.5,436,230.5z"></path><path class="st1" d="M393.2,354.3c-36.5,0-46.7-15.3-47.1-16c-0.1-0.1-0.1-0.2-0.1-0.3l4-45.5l-3.9-4.6c-0.1-0.1-0.1-0.2-0.1-0.4
			c0.1-1.6,3.2-40.4,9.2-49.8c0.4-0.7,0.8-1.3,1.3-2.1c5.9-9.6,14.1-22.8,39-21.8c26.4,1,40.8,16,40.9,16.2c0.1,0.1,0.1,0.2,0.1,0.3
			c0,0.4,4.5,44.1,6.4,58.1l6.8,62.1c0,0.3-0.2,0.5-0.4,0.5c-0.2,0-17.8,2.8-55,3.1C393.9,354.3,393.5,354.3,393.2,354.3z
			 M347,337.9c1.1,1.5,12.1,15.4,46.2,15.4c0.4,0,0.7,0,1.1,0c33.7-0.3,51.3-2.6,54.4-3l-6.7-61.6c-1.8-13.6-6.1-54.9-6.4-58
			c-1.4-1.4-15.4-14.8-40.1-15.8c-24.4-0.9-32.3,11.9-38.1,21.3c-0.4,0.7-0.9,1.4-1.3,2.1c-5.6,8.8-8.7,46-9,49.1l3.9,4.6
			c0.1,0.1,0.1,0.2,0.1,0.4L347,337.9z"></path></g><g><path class="st0" d="M374.3,168.3c-4.6,14.1-11.1,26.1-12.4,33.9c-1.3,7.7,2,15.6,2,15.6l25.8-0.7l2.7-12.9L374.3,168.3z"></path><path class="st1" d="M363.8,218.3c-0.2,0-0.4-0.1-0.5-0.3c-0.1-0.3-3.4-8.1-2-15.9c0.7-4.3,3.1-9.9,5.7-16.4
			c2.2-5.3,4.7-11.2,6.7-17.6c0.1-0.2,0.2-0.3,0.4-0.3c0.2,0,0.4,0.1,0.5,0.3l18.1,36c0.1,0.1,0.1,0.2,0,0.3l-2.7,12.9
			c0,0.2-0.2,0.4-0.5,0.4L363.8,218.3C363.8,218.3,363.8,218.3,363.8,218.3z M374.4,169.6c-2,5.9-4.3,11.5-6.4,16.5
			c-2.7,6.4-5,12-5.7,16.2c-1.1,6.7,1.3,13.5,1.8,15l25-0.7l2.6-12.3L374.4,169.6z"></path></g><g><path class="st0" d="M407.2,201c-0.6,9.1-0.5,19.8-0.5,19.8s-3.2,8.3-12.2,8c-9-0.3-8.4-8-8.2-9.5c0.2-1.6,3.9-10.5,4.3-12.1
			S407.2,201,407.2,201z"></path><path class="st1" d="M394.9,229.3c-0.2,0-0.3,0-0.5,0c-3.1-0.1-5.4-1.1-6.9-2.8c-2.1-2.5-1.9-5.9-1.8-7.3c0.1-0.9,1.2-3.8,2.7-7.7
			c0.8-2,1.5-3.9,1.7-4.5c0.5-1.8,12-5.1,17-6.4c0.2,0,0.3,0,0.4,0.1c0.1,0.1,0.2,0.3,0.2,0.4c-0.6,9-0.5,19.6-0.5,19.7
			c0,0.1,0,0.1,0,0.2C407.1,221.1,403.8,229.3,394.9,229.3z M406.7,201.7c-7.4,2-15.1,4.6-15.6,5.5c-0.2,0.7-0.9,2.5-1.7,4.6
			c-1.1,2.9-2.5,6.6-2.6,7.5c-0.2,1.2-0.3,4.3,1.5,6.5c1.3,1.5,3.4,2.4,6.1,2.5c8.2,0.3,11.3-6.6,11.7-7.5
			C406.2,219.6,406.1,210.1,406.7,201.7z"></path></g><g><path class="st0" d="M371.8,198.4c6.2,8.7,22.4,11.8,33.6,5.8l0,0c1.9-1.5,3.5-3.4,4.7-5.5c4.3-8.4,1.3-18.7-6.8-23.5l-0.5-0.3
			c-1-0.6-2-1.1-2.9-1.7l0,0c-2.5-1.6-4.8-3.5-7-5.5l-0.1-0.1c-2-1.9-3.8-4.1-5.3-6.4l0,0l-0.1-0.2l0,0c-2.4,5.7-12.9,7.3-13.1,7.4
			C371.3,174.7,365.6,189.9,371.8,198.4z"></path><path class="st1" d="M392.4,207.8c-8.4,0-16.8-3.3-21-9.1l0,0c-6.6-9.2,0.2-25.7,2.4-30.5c0.1-0.2,0.2-0.3,0.4-0.3
			c0.4-0.1,10.5-1.7,12.8-7.1c0.1-0.2,0.2-0.3,0.4-0.3c0.2,0,0.4,0.1,0.5,0.2l0.1,0.2c1.5,2.3,3.3,4.4,5.2,6.3l0.1,0.1
			c2.1,2,4.4,3.9,6.9,5.5c0.9,0.6,1.9,1.2,2.8,1.7l0.5,0.3c8.3,4.9,11.4,15.5,7,24.1c-1.2,2.2-2.8,4.2-4.8,5.7
			C401.7,206.7,397,207.8,392.4,207.8z M374.6,168.8c-2.3,5-8.6,20.7-2.4,29.3c0,0,0,0,0,0c6.2,8.6,22.2,11.4,33,5.7
			c1.8-1.4,3.4-3.2,4.4-5.3c4.2-8.1,1.3-18.2-6.6-22.8l-0.5-0.3c-1-0.5-2-1.1-2.9-1.7c-2.5-1.6-4.9-3.5-7-5.6l-0.1-0.1
			c-1.9-1.8-3.5-3.8-5-5.9C384.7,166.9,376.5,168.5,374.6,168.8z"></path></g><path class="st1" d="M394.6,178.9c0.7-0.6,1.5-1.1,2.3-1.3c0.9-0.3,1.8-0.3,2.7-0.1c0.9,0.2,1.8,0.6,2.5,1.2c0.3,0.3,0.6,0.6,0.9,1
		c0.2,0.3,0.5,0.7,0.6,1.1c0.1,0.3,0,0.6-0.2,0.7c0,0,0,0,0,0c-0.2,0.1-0.4,0.1-0.6-0.1l0,0c-0.5-0.5-1.1-0.9-1.7-1.3
		c-0.5-0.4-1.2-0.6-1.8-0.7c-0.6-0.1-1.3-0.1-2,0c-0.7,0.1-1.4,0.3-2,0.5h-0.1c-0.3,0.1-0.6,0-0.7-0.3
		C394.5,179.3,394.5,179,394.6,178.9z"></path><path class="st1" d="M374.9,172.1c0.4-0.4,0.8-0.8,1.4-0.9c0.5-0.2,1-0.3,1.5-0.3c1-0.1,2,0.1,2.9,0.5c0.9,0.4,1.8,0.9,2.5,1.6
		c0.7,0.6,1.3,1.4,1.7,2.3c0.1,0.3,0,0.6-0.2,0.7c-0.2,0.1-0.5,0.1-0.6-0.1l0,0c-0.6-0.6-1.3-1.1-1.9-1.6c-0.6-0.5-1.3-0.9-2.1-1.2
		c-0.7-0.3-1.5-0.5-2.3-0.5c-0.4,0-0.8,0-1.1,0c-0.3,0-0.7,0.1-1,0.3l-0.2,0.1c-0.3,0.1-0.6,0-0.7-0.3c0,0,0,0,0,0
		C374.7,172.5,374.8,172.3,374.9,172.1z"></path><path class="st1" d="M381.1,189.4c-0.1,0-0.3,0-0.4,0c-1.6-0.2-2.6-1.4-2.5-3c0-0.9,0.4-1.5,1-2c1.1-0.9,2.8-0.8,3.6-0.7
		c0.6-2.7,1-5.4,1.2-8.1c0-0.3,0.3-0.5,0.5-0.5c0.3,0,0.5,0.3,0.5,0.5c-0.2,2.9-0.6,5.9-1.3,8.7c-0.1,0.3-0.3,0.4-0.6,0.4
		c-0.6-0.1-2.4-0.3-3.3,0.4c-0.4,0.3-0.6,0.7-0.6,1.3c-0.1,1.6,1.1,1.9,1.6,2c1.2,0.1,2.7-0.6,3-2c0.1-0.3,0.3-0.4,0.6-0.4
		c0.3,0.1,0.4,0.3,0.4,0.6C384.5,188.4,382.7,189.4,381.1,189.4z"></path><path class="st1" d="M396.1,184.1c0.1,1.4-0.6,2.7-1.6,2.8c-1,0.1-1.9-1-2-2.5c0-0.4,0-0.8,0.1-1.2l1.8,0.8l-1-2.1
		c0.2-0.2,0.4-0.2,0.7-0.3C395,181.6,396,182.6,396.1,184.1z"></path><path class="st1" d="M378.7,179.3c0.3,1.4-0.3,2.7-1.3,2.9c-1,0.2-2-0.8-2.3-2.3c-0.1-0.4-0.1-0.8,0-1.2l1.9,0.6l-1.2-1.9
		c0.2-0.2,0.4-0.3,0.6-0.3C377.4,176.8,378.4,177.9,378.7,179.3z"></path><path class="st1" d="M390.4,198.6c-1.7,0-3.2-1.1-4.2-2.9c-0.1-0.2,0-0.5,0.2-0.7c0.2-0.1,0.5,0,0.7,0.2c0.9,1.7,2.3,2.6,3.8,2.3
		c1.3-0.2,2.3-1.4,2.6-3c0-0.3,0.3-0.5,0.6-0.4c0.3,0,0.5,0.3,0.4,0.6c-0.3,2.1-1.6,3.5-3.4,3.8
		C390.8,198.6,390.6,198.6,390.4,198.6z"></path><path class="st1" d="M399.9,173.7c-0.1,0-0.2,0-0.3-0.1c-2.6-1.6-4.9-3.5-7.1-5.6c-0.2-0.2-0.2-0.5,0-0.7c0.2-0.2,0.5-0.2,0.7,0
		c2.1,2,4.4,3.9,6.9,5.5c0.2,0.1,0.3,0.5,0.2,0.7C400.2,173.6,400.1,173.7,399.9,173.7z"></path><g><path class="st0" d="M367.4,168.3c0,0,15.2,2.2,19.9-7.4l0,0l0.1,0.2l0,0c1.6,2.3,3.4,4.4,5.3,6.4l0.1,0.1c2.1,2.1,4.5,3.9,7,5.5
			l0,0l2.9,1.7l0.5,0.3c8.1,4.8,11.1,15.1,6.8,23.5c-1.1,2.2-2.7,4-4.7,5.5l0,0c-4.6,3.3-7.8,8.2-9.1,13.8c0,0,14.9-1.9,28,3.2
			s7-44.9-3.8-60.3c-10.8-15.4-23.2-14.7-26.7-13.3c0,0-4.8-5.5-13,1.8C373.2,156.2,367.4,168.3,367.4,168.3z"></path><path class="st1" d="M426,222c-0.6,0-1.3-0.1-1.9-0.4c-12.8-5-27.6-3.2-27.8-3.2c-0.2,0-0.3,0-0.4-0.2c-0.1-0.1-0.2-0.3-0.1-0.4
			c1.3-5.6,4.6-10.6,9.3-14c1.9-1.4,3.4-3.3,4.5-5.3c4.2-8.1,1.3-18.2-6.6-22.8l-3.3-2c-2.5-1.6-4.9-3.5-7-5.6l-0.1-0.1
			c-1.8-1.8-3.5-3.8-5-6c-5.2,8.9-19.4,7-20,6.9c-0.2,0-0.3-0.1-0.4-0.3c-0.1-0.1-0.1-0.3,0-0.5c0.1-0.1,5.9-12.3,13.5-19.2
			c3.1-2.8,6.1-4.1,8.9-3.9c2.4,0.2,4,1.4,4.5,1.9c2.2-0.6,15-3.4,26.9,13.6c9.5,13.6,14.9,51.5,8.5,59.7
			C428.5,221.4,427.3,222,426,222z M402.9,217.1c5.6,0,13.9,0.6,21.6,3.6c1.7,0.7,3.1,0.3,4.1-1c6.1-7.8,0.6-45.5-8.5-58.5
			c-10.5-15-22.7-14.5-26.1-13.2c-0.2,0.1-0.4,0-0.6-0.1c0,0-1.5-1.6-4.1-1.8c-2.5-0.2-5.3,1.1-8.2,3.6c-6.5,5.9-11.7,15.7-13,18.3
			c3,0.3,14.8,0.8,18.7-7.2c0.1-0.2,0.2-0.3,0.4-0.3c0.2,0,0.4,0.1,0.5,0.2l0.1,0.2c1.5,2.2,3.3,4.4,5.2,6.3l0.1,0.1
			c2.1,2,4.4,3.9,6.9,5.5l3.3,2c8.3,4.9,11.4,15.5,7,24.1c-1.2,2.2-2.8,4.2-4.8,5.7c-4.3,3.1-7.4,7.7-8.7,12.8
			C398,217.2,400.1,217.1,402.9,217.1z"></path></g><g><path class="st0" d="M319.4,256.7c10.3,20.4,16.1,39.8,31.2,35.7l6.7-35.7l-27-2.7L319.4,256.7z"></path><path class="st1" d="M346.6,293.4c-10.4,0-16-12-23-26.8c-1.5-3.2-3-6.5-4.7-9.8c-0.1-0.1-0.1-0.3,0-0.4c0.1-0.1,0.2-0.2,0.3-0.3
			l10.9-2.7c0.1,0,0.1,0,0.2,0l27,2.7c0.1,0,0.3,0.1,0.4,0.2c0.1,0.1,0.1,0.3,0.1,0.4l-6.7,35.7c0,0.2-0.2,0.3-0.4,0.4
			C349.2,293.2,347.9,293.4,346.6,293.4z M320.1,257c1.6,3.1,3,6.2,4.4,9.2c7.6,16,13.5,28.7,25.6,25.7l6.5-34.9l-26.3-2.6
			L320.1,257z"></path></g><path class="st1" d="M341.3,266.2c-0.1,0-0.2,0-0.2-0.1c-0.2-0.1-0.3-0.4-0.2-0.7c1.2-2.3,3.1-4.1,5.4-5.1c0.3-0.1,0.5,0,0.7,0.3
		c0.1,0.3,0,0.5-0.3,0.7c-2.1,1-3.9,2.6-5,4.7C341.7,266.1,341.5,266.2,341.3,266.2z"></path><g><path class="st0" d="M402.8,224.7c0,0-18.9,1.3-19.6,3.2c-0.7,2,3,3.4,7,3.4h9.3c0,0-3.1,6.1-1.7,8.1c1.5,2,4.6,0.8,4.6,0.8
			s-1.3,5,3.9,5.6c0,0,0.6,4.2,5,2c0.4,0.8,1,1.4,1.8,1.7c0,0,7.4,41.6,20.4,47.5s24.6-5.4,20.4-20.9s-10.4-42.5-17.9-45.6
			c0,0-8.8,3.1-9,16.1c0,0-3.2-12.5-10.4-17.5C409.4,224.1,402.8,224.7,402.8,224.7z"></path><path class="st1" d="M440.5,299.1c-2.3,0-4.8-0.5-7.1-1.6c-5.5-2.5-10.7-11.3-15.3-26.3c-3.1-10.1-5-19.7-5.3-21.4
			c-0.6-0.3-1.1-0.8-1.5-1.4c-1.4,0.6-2.6,0.7-3.5,0.2c-1.1-0.6-1.5-1.7-1.7-2.3c-1.5-0.2-2.6-0.8-3.3-1.8c-0.8-1.2-0.9-2.6-0.8-3.5
			c-1.1,0.3-3.2,0.5-4.4-1.2c-1.3-1.8,0.4-6.1,1.3-7.9h-8.5c-2.8,0-6.1-0.7-7.2-2.3c-0.4-0.6-0.5-1.2-0.3-1.8
			c0.7-2.1,14.2-3.2,20-3.6c0.4,0,6.9-0.5,14.1,4.5c5.3,3.7,8.4,11.2,9.8,15.1c0.6-5.2,2.8-8.6,4.6-10.5c2.3-2.5,4.5-3.3,4.6-3.3
			c0.1,0,0.2,0,0.4,0c6.7,2.8,12.1,23.1,16.4,39.4c0.6,2.3,1.2,4.6,1.8,6.6c2.2,7.9,0.3,15.5-4.7,19.8
			C447.1,298,443.8,299.1,440.5,299.1z M411.4,247.3c0.2,0,0.4,0.1,0.4,0.3c0.3,0.7,0.9,1.2,1.5,1.5c0.1,0.1,0.2,0.2,0.3,0.4
			c0.1,0.4,7.5,41.4,20.1,47.1c5.6,2.5,11.1,2,15.3-1.6c4.8-4.1,6.5-11.3,4.4-18.8c-0.6-2-1.1-4.2-1.8-6.6
			c-4-15.1-9.4-35.7-15.6-38.6c-1.3,0.5-8.3,4-8.5,15.6c0,0.3-0.2,0.5-0.4,0.5c-0.3,0-0.5-0.1-0.5-0.4c0-0.1-3.2-12.4-10.2-17.2
			c-7-4.8-13.4-4.3-13.5-4.3c0,0,0,0,0,0c-8.7,0.6-18.6,1.9-19.2,2.9c-0.1,0.3,0,0.6,0.2,0.9c0.8,1.1,3.5,1.9,6.4,1.9h9.3
			c0.2,0,0.3,0.1,0.4,0.2s0.1,0.3,0,0.5c-1.2,2.2-2.6,6.3-1.7,7.6c1.2,1.7,4,0.6,4,0.6c0.2-0.1,0.4,0,0.5,0.1s0.2,0.3,0.2,0.5
			c0,0-0.5,2.1,0.5,3.5c0.6,0.8,1.6,1.3,2.9,1.5c0.2,0,0.4,0.2,0.4,0.4c0,0,0.2,1.4,1.3,2c0.7,0.4,1.8,0.3,3-0.4
			C411.2,247.3,411.3,247.3,411.4,247.3z M402.8,224.7L402.8,224.7L402.8,224.7z"></path></g><path class="st1" d="M399.5,231.9c-0.1,0-0.2,0-0.3-0.1c-0.2-0.2-0.3-0.5-0.1-0.7l3.3-4.5c0.2-0.2,0.5-0.3,0.7-0.1
		c0.2,0.2,0.3,0.5,0.1,0.7l-3.3,4.5C399.8,231.9,399.7,231.9,399.5,231.9z"></path><path class="st1" d="M403.3,239.5c0,0-0.1,0-0.1,0c-0.3-0.1-0.4-0.3-0.4-0.6c0.8-2.9,1.8-5.8,3.2-8.6c0.1-0.2,0.4-0.3,0.7-0.2
		c0.2,0.1,0.4,0.4,0.2,0.7c-1.3,2.7-2.3,5.5-3.1,8.4C403.7,239.3,403.5,239.5,403.3,239.5z"></path><path class="st1" d="M406.9,244.9C406.9,244.9,406.9,244.9,406.9,244.9c-0.3,0-0.5-0.2-0.5-0.5c0-0.2,0.1-5.6,2.4-9.2
		c0.1-0.2,0.5-0.3,0.7-0.2c0.2,0.1,0.3,0.5,0.2,0.7c-2.1,3.4-2.2,8.7-2.2,8.7C407.4,244.7,407.2,244.9,406.9,244.9z"></path><path class="st1" d="M411.3,247C411.2,247,411.2,247,411.3,247c-0.3,0-0.5-0.3-0.5-0.6c0.3-2.9,0.9-5.7,1.8-8.5
		c0.1-0.3,0.4-0.4,0.6-0.3c0.3,0.1,0.4,0.4,0.3,0.6c-0.9,2.7-1.5,5.5-1.8,8.3C411.7,246.8,411.5,247,411.3,247z"></path><path class="st1" d="M415.4,249.2c-0.2,0-0.3-0.1-0.4-0.2c-0.2-0.2-0.1-0.5,0.1-0.7c2.2-1.5,2.6-4,2.1-4.8c-0.1-0.1-0.3-0.4-0.9,0
		c-0.2,0.1-0.5,0.1-0.7-0.2c-0.1-0.2-0.1-0.5,0.2-0.7c1.1-0.7,1.9-0.2,2.3,0.4c0.8,1.3,0.3,4.4-2.4,6.2
		C415.6,249.2,415.5,249.2,415.4,249.2z"></path><path class="st1" d="M435.4,267.8c-0.2,0-0.4-0.1-0.5-0.4c-1.9-6.5-4.3-12.9-7.3-19c-0.1-0.2,0-0.5,0.2-0.7c0.2-0.1,0.5,0,0.7,0.2
		c3,6.1,5.4,12.6,7.3,19.1c0.1,0.3-0.1,0.5-0.3,0.6C435.5,267.8,435.4,267.8,435.4,267.8z"></path><g><path class="st0" d="M330.3,258.1l27,7l48.3,3.1l-24.6-68.1c0,0-49.6,4.3-49.6,3.8c0-0.5-43.8-11.3-43.8-11.3l29.1,56.8l2.8,7.1
			L330.3,258.1z"></path><path class="st1" d="M405.5,268.8C405.5,268.8,405.5,268.8,405.5,268.8l-48.3-3.1l-27-7.1l-10.8-1.4c-0.2,0-0.3-0.1-0.4-0.3
			l-2.8-7.1L287,193c-0.1-0.2-0.1-0.4,0.1-0.5c0.1-0.2,0.3-0.2,0.5-0.2c0,0,11,2.7,21.9,5.4c16.6,4.2,20.9,5.3,21.9,5.9l0,0
			c1.4,0.2,30.3-2.2,49.4-3.8c0.2,0,0.4,0.1,0.5,0.3l24.6,68.1c0.1,0.2,0,0.3-0.1,0.5C405.8,268.7,405.7,268.8,405.5,268.8z
			 M319.7,256.2l10.6,1.4c0,0,0,0,0.1,0l27,7l47.4,3.1l-24.3-67c-48.9,4.3-49.3,3.9-49.5,3.7c0,0,0,0,0,0
			c-1.7-0.7-25.8-6.8-42.5-10.9l28.6,55.8L319.7,256.2z"></path></g><g><path class="st0" d="M309.7,242.9c-2.8-0.6-3.5-3.5-2.5-6.6c1-3.1,3.8-11.2,5.7-12c1.9-0.7,2.3,2.7,1.3,6
			c-0.8,3.2-1.4,6.5-1.8,9.7L309.7,242.9z"></path><path class="st1" d="M309.7,243.4c0,0-0.1,0-0.1,0c-1.2-0.2-2.1-0.9-2.7-1.9c-0.8-1.4-0.9-3.3-0.2-5.4c1.4-4.2,3.9-11.5,6-12.3
			c0.6-0.2,1.2-0.2,1.6,0.2c1.1,1,1,4,0.3,6.3c-0.8,3.2-1.4,6.4-1.8,9.7c0,0.1-0.1,0.2-0.1,0.3l-2.7,2.9
			C310,243.3,309.8,243.4,309.7,243.4z M313.4,224.7c-0.1,0-0.2,0-0.3,0.1c-1.1,0.4-3.3,5.1-5.4,11.6c-0.6,1.8-0.5,3.5,0.1,4.6
			c0.4,0.7,1,1.1,1.7,1.3l2.4-2.5c0.4-3.2,1.1-6.5,1.8-9.6c0.7-2.5,0.6-4.8,0-5.3C313.6,224.8,313.5,224.7,313.4,224.7z"></path></g><g><path class="st0" d="M311.1,248.8c-3.2-2-3.8-5.2-2-7.7s10-9.4,12-9.7s2.2,3.3,0,5.4c-2,2.2-3.8,4.5-5.4,7L311.1,248.8z"></path><path class="st1" d="M311.1,249.3c-0.1,0-0.2,0-0.3-0.1c-1.7-1-2.8-2.4-3.1-4c-0.3-1.5,0-3.1,1-4.4c1.8-2.7,10.1-9.6,12.3-9.9
			c0.8-0.1,1.5,0.2,1.8,1c0.6,1.3,0.3,3.7-1.4,5.3c-1.9,2.1-3.7,4.5-5.3,6.9l-4.6,5.1C311.3,249.3,311.2,249.3,311.1,249.3z
			 M321.2,231.8c-0.1,0-0.1,0-0.1,0c-1.7,0.3-9.9,6.9-11.6,9.5c-0.8,1.1-1.1,2.4-0.8,3.7c0.3,1.2,1.1,2.3,2.3,3.2l4.3-4.8
			c1.6-2.4,3.4-4.8,5.4-7c1.3-1.3,1.7-3.2,1.2-4.1C321.7,231.9,321.4,231.8,321.2,231.8z"></path></g><g><path class="st0" d="M313.7,254c0,0-4.8-2-3.8-6.4s9.3-8.3,13.4-9.2s5,0.7,3.5,2.3c-2.6,2.1-5.3,4.1-8.2,6L313.7,254z"></path><path class="st1" d="M313.7,254.5c-0.1,0-0.1,0-0.2,0c-0.1,0-5.2-2.2-4.1-7c1.1-4.6,9.4-8.6,13.8-9.6c3.3-0.7,4.3,0.2,4.6,0.7
			c0.4,0.7,0.1,1.6-0.7,2.4c-2.6,2.1-5.4,4.1-8.2,6l-4.9,7.3C314,254.4,313.8,254.5,313.7,254.5z M325.4,238.6c-0.5,0-1.2,0.1-2,0.2
			c-4,0.9-12,4.7-13,8.8c-0.8,3.3,2.1,5.1,3.1,5.7l4.7-7c0-0.1,0.1-0.1,0.1-0.1c2.8-1.8,5.5-3.8,8.1-6c0.4-0.4,0.6-0.9,0.5-1.2
			C326.8,238.9,326.4,238.6,325.4,238.6z"></path></g><g><path class="st0" d="M330.3,258.1c0,0-9.9,4.2-14.9,0.8c-5-3.3-2.9-10.3,0-12.3c2.9-2,9.4-2.4,10.7-0.7c1.4,1.7-0.4,3.2-2.6,3.6
			l-5,0.9c0.3,1.8,1.3,3.4,2.8,4.5C323.6,256.4,330.3,258.1,330.3,258.1z"></path><path class="st1" d="M320.5,260.7c-2,0-3.9-0.4-5.4-1.4c-2.1-1.4-3.2-3.6-3.2-6.1c0-2.8,1.4-5.7,3.2-7c2.9-2,9.7-2.6,11.4-0.6
			c0.7,0.9,0.6,1.7,0.5,2.2c-0.4,1.1-1.7,1.9-3.4,2.2l-4.5,0.8c0.4,1.5,1.3,2.8,2.5,3.7c2.2,1.4,8.7,3,8.8,3
			c0.2,0.1,0.4,0.2,0.4,0.4c0,0.2-0.1,0.4-0.3,0.5C330.2,258.7,325.2,260.7,320.5,260.7z M322.3,245.4c-2.2,0-5,0.6-6.6,1.7
			c-1.6,1.1-2.8,3.7-2.8,6.1c0,1.6,0.5,3.8,2.8,5.3c3.6,2.4,10,0.6,12.9-0.3c-2.1-0.6-5.9-1.7-7.6-2.8c-1.6-1.2-2.7-2.9-3-4.8
			c0-0.1,0-0.3,0.1-0.4c0.1-0.1,0.2-0.2,0.3-0.2l5-0.9c1.3-0.2,2.3-0.9,2.6-1.6c0.1-0.4,0.1-0.8-0.3-1.2
			C325.2,245.7,323.9,245.4,322.3,245.4z"></path></g><path class="st1" d="M357.2,265.6c-0.2,0-0.4-0.1-0.5-0.3l-25.1-58.5c-0.1-0.3,0-0.5,0.3-0.7c0.3-0.1,0.5,0,0.7,0.3l25.1,58.5
		c0.1,0.3,0,0.5-0.3,0.7C357.3,265.6,357.3,265.6,357.2,265.6z"></path></g><g id="table"><g><polygon class="st0" points="386.1,336.9 386.1,350.7 119.1,350.7 112.3,336.9 110.1,332.2 137,289.6 344.7,289.6 		"></polygon><path class="st1" d="M386.1,351.2h-267c-0.2,0-0.4-0.1-0.4-0.3l-9-18.5c-0.1-0.2-0.1-0.3,0-0.5l26.9-42.6c0.1-0.1,0.3-0.2,0.4-0.2
			h207.7c0.1,0,0.3,0.1,0.4,0.2l41.4,47.3c0.1,0.1,0.1,0.2,0.1,0.3v13.8C386.6,351,386.3,351.2,386.1,351.2z M119.4,350.2h266.2
			v-13.1l-41.1-47H137.2l-26.6,42.1L119.4,350.2z"></path></g><g><polygon class="st1" points="386.1,336.9 386.1,350.7 119.1,350.7 112.3,336.9 		"></polygon><path class="st1" d="M386.1,351.2h-267c-0.2,0-0.4-0.1-0.4-0.3l-6.7-13.8c-0.1-0.2-0.1-0.3,0-0.5c0.1-0.1,0.3-0.2,0.4-0.2h273.7
			c0.3,0,0.5,0.2,0.5,0.5v13.8C386.6,351,386.3,351.2,386.1,351.2z M119.4,350.2h266.2v-12.8H113.1L119.4,350.2z"></path></g></g><g id="candle"><g><path class="st0" d="M271.7,308.4c0,0,1.4,6.2-15.4,6.2c0,0-15.6,0.6-15.6-6.2H271.7z"></path><path class="st1" d="M255.1,315.1c-2.9,0-10.3-0.3-13.5-3.3c-1-0.9-1.5-2.1-1.5-3.4c0-0.3,0.2-0.5,0.5-0.5h31
			c0.2,0,0.4,0.2,0.5,0.4c0,0.1,0.3,1.4-0.9,2.9c-1.4,1.8-5.2,3.9-15,3.9C256.2,315.1,255.8,315.1,255.1,315.1z M241.2,308.9
			c0.1,0.8,0.5,1.5,1.1,2.1c3.6,3.4,13.8,3.1,13.9,3c9.4,0,12.9-1.9,14.2-3.5c0.6-0.7,0.7-1.3,0.7-1.7H241.2z"></path></g><g><ellipse class="st0" cx="256.2" cy="308.4" rx="15.5" ry="3.2"></ellipse><path class="st1" d="M256.2,312.1c-6.4,0-16-1-16-3.7s9.6-3.7,16-3.7c6.4,0,16,1,16,3.7S262.6,312.1,256.2,312.1z M256.2,305.7
			c-9.8,0-15,1.7-15,2.7s5.1,2.7,15,2.7c9.8,0,15-1.7,15-2.7S266,305.7,256.2,305.7z"></path></g><path class="st2" d="M256.3,275.4c-3.9,0.2-5.6-2.4-5.6-4.1c0.1-1.7,0-3.6,0-3.6s0.8,1.1,1.3,0c0.5-1.1,0.2-3,1.5-4.7
		s2.5-2.7,2.8-3.6c0.3-1,2.3,1.8,2.7,3.6c0.4,1.8,1,3.5,1.8,5.1c0.3,0.5,0.9-0.9,0.9-0.9c0.1,1,0,2.1-0.3,3.1
		C260.7,272.5,261,275.1,256.3,275.4z"></path><path class="st1" d="M255.8,275.9c-2.2,0-3.5-0.9-4.3-1.6c-0.9-0.9-1.4-2-1.3-3c0.1-1.6,0-3.5,0-3.5c0-0.2,0.1-0.4,0.3-0.5
		c0.2-0.1,0.4,0,0.6,0.2c0.1,0.1,0.2,0.3,0.3,0.3c0,0,0-0.1,0.1-0.2c0.1-0.3,0.2-0.8,0.3-1.3c0.2-1,0.4-2.3,1.3-3.5
		c0.5-0.6,1-1.2,1.4-1.6c0.7-0.8,1.2-1.3,1.3-1.9c0.1-0.4,0.5-0.5,0.7-0.6c1.1,0,2.6,2.8,2.9,4.2c0.4,1.5,0.9,3,1.5,4.5
		c0.1-0.1,0.1-0.2,0.2-0.3c0.1-0.2,0.3-0.3,0.5-0.3c0.2,0,0.4,0.2,0.4,0.4c0.2,1.1,0,2.2-0.4,3.3c-0.1,0.3-0.1,0.6-0.2,0.9
		c-0.4,1.9-0.8,4.2-5.2,4.4l0,0C256.1,275.9,256,275.9,255.8,275.9z M256.3,275.4L256.3,275.4L256.3,275.4z M251.2,268.7
		c0,0.7,0,1.7,0,2.6c0,0.6,0.2,1.5,1,2.2c0.7,0.7,1.9,1.4,4,1.3c3.6-0.2,3.9-1.7,4.3-3.6c0.1-0.4,0.1-0.7,0.2-1
		c0.2-0.5,0.3-1,0.3-1.5c-0.1,0-0.2,0-0.2,0c-0.1,0-0.4,0-0.6-0.4c-0.8-1.7-1.4-3.5-1.8-5.2c-0.3-1.3-1.3-2.8-1.8-3.3
		c-0.3,0.6-0.8,1.2-1.4,1.9c-0.4,0.5-0.9,1-1.3,1.6c-0.8,1-0.9,2.1-1.1,3.1c-0.1,0.6-0.2,1.1-0.4,1.5c-0.3,0.6-0.6,0.7-0.9,0.8
		C251.4,268.7,251.3,268.7,251.2,268.7z"></path><path class="st1" d="M255.8,275.9c-2.2,0-3.5-0.9-4.3-1.6c-0.9-0.9-1.4-2-1.3-3c0.1-1.6,0-3.5,0-3.5c0-0.2,0.1-0.4,0.3-0.5
		c0.2-0.1,0.4,0,0.6,0.2c0.1,0.1,0.2,0.3,0.3,0.3c0,0,0-0.1,0.1-0.2c0.1-0.3,0.2-0.8,0.3-1.3c0.2-1,0.4-2.3,1.3-3.5
		c0.5-0.6,1-1.2,1.4-1.6c0.7-0.8,1.2-1.3,1.3-1.9c0.1-0.4,0.5-0.5,0.7-0.6c1.1,0,2.6,2.8,2.9,4.2c0.4,1.5,0.9,3,1.5,4.5
		c0.1-0.1,0.1-0.2,0.2-0.3c0.1-0.2,0.3-0.3,0.5-0.3c0.2,0,0.4,0.2,0.4,0.4c0.2,1.1,0,2.2-0.4,3.3c-0.1,0.3-0.1,0.6-0.2,0.9
		c-0.4,1.9-0.8,4.2-5.2,4.4l0,0C256.1,275.9,256,275.9,255.8,275.9z M256.3,275.4L256.3,275.4L256.3,275.4z M251.2,268.7
		c0,0.7,0,1.7,0,2.6c0,0.6,0.2,1.5,1,2.2c0.7,0.7,1.9,1.4,4,1.3c3.6-0.2,3.9-1.7,4.3-3.6c0.1-0.4,0.1-0.7,0.2-1
		c0.2-0.5,0.3-1,0.3-1.5c-0.1,0-0.2,0-0.2,0c-0.1,0-0.4,0-0.6-0.4c-0.8-1.7-1.4-3.5-1.8-5.2c-0.3-1.3-1.3-2.8-1.8-3.3
		c-0.3,0.6-0.8,1.2-1.4,1.9c-0.4,0.5-0.9,1-1.3,1.6c-0.8,1-0.9,2.1-1.1,3.1c-0.1,0.6-0.2,1.1-0.4,1.5c-0.3,0.6-0.6,0.7-0.9,0.8
		C251.4,268.7,251.3,268.7,251.2,268.7z"></path><g><path class="st0" d="M262.5,277.8v30.9c0,0.6-2.8,1-6.3,1c-3.5,0-6.3-0.5-6.3-1v-30.9c0,0.6,2.8,1,6.3,1S262.5,278.4,262.5,277.8z
			"></path><path class="st1" d="M256.3,310.2c-2.5,0-6.8-0.2-6.8-1.5v-30.9c0-0.3,0.2-0.5,0.5-0.5c0.2,0,0.4,0.1,0.5,0.3
			c0.4,0.2,2.4,0.7,5.8,0.7c3.4,0,5.4-0.4,5.8-0.7c0.1-0.2,0.3-0.3,0.5-0.3c0.3,0,0.5,0.2,0.5,0.5v30.9
			C263,310,258.8,310.2,256.3,310.2z M250.5,308.6c0.5,0.3,2.4,0.7,5.8,0.7c3.4,0,5.3-0.4,5.8-0.7v-29.8c-1.5,0.5-4.3,0.6-5.8,0.6
			c-1.5,0-4.3-0.1-5.8-0.6V308.6z"></path></g><g><ellipse class="st0" cx="256.3" cy="277.8" rx="6.3" ry="1"></ellipse><path class="st1" d="M256.3,279.4c-2.5,0-6.8-0.2-6.8-1.5c0-1.3,4.2-1.5,6.8-1.5s6.8,0.2,6.8,1.5
			C263,279.2,258.8,279.4,256.3,279.4z M250.9,277.8c0.8,0.2,2.6,0.5,5.4,0.5s4.6-0.3,5.4-0.5c-0.8-0.2-2.6-0.5-5.4-0.5
			C253.5,277.3,251.7,277.6,250.9,277.8z M262.1,278L262.1,278L262.1,278z"></path></g><path class="st1" d="M256.3,278.3c-0.3,0-0.5-0.2-0.5-0.5v-9.1c0-0.3,0.2-0.5,0.5-0.5s0.5,0.2,0.5,0.5v9.1
		C256.8,278.1,256.5,278.3,256.3,278.3z"></path></g><g id="menu"><g><path class="st0" d="M175.9,327.4h64.8l-12.2-26.7h-52c0,0-8.7,15.3-9.1,15.8C167,316.9,175.9,327.4,175.9,327.4z"></path><path class="st1" d="M240.7,327.9h-64.8c-0.1,0-0.3-0.1-0.4-0.2c-9.2-10.8-8.8-11.2-8.5-11.6c0.4-0.5,5.6-9.7,9-15.7
			c0.1-0.2,0.3-0.3,0.4-0.3h52c0.2,0,0.4,0.1,0.5,0.3l12.2,26.7c0.1,0.2,0.1,0.3,0,0.5C241,327.8,240.8,327.9,240.7,327.9z
			 M176.1,326.9h63.8l-11.7-25.7h-51.4c-2,3.6-7.8,13.7-8.8,15.4C168.5,317.6,172.4,322.5,176.1,326.9z M167.8,316.7
			C167.8,316.7,167.8,316.8,167.8,316.7C167.8,316.8,167.8,316.7,167.8,316.7z"></path></g><path class="st1" d="M230,317.9c-0.2,0-0.4-0.1-0.5-0.3l-5.5-13.1c-0.1-0.3,0-0.5,0.3-0.7c0.3-0.1,0.5,0,0.7,0.3l5.5,13.1
		c0.1,0.3,0,0.5-0.3,0.7C230.2,317.9,230.1,317.9,230,317.9z"></path><path class="st1" d="M223.9,320.4c-0.2,0-0.4-0.2-0.5-0.4l-4-15.5c-0.1-0.3,0.1-0.5,0.4-0.6c0.3-0.1,0.5,0.1,0.6,0.4l4,15.5
		c0.1,0.3-0.1,0.5-0.4,0.6C224,320.4,224,320.4,223.9,320.4z"></path><path class="st1" d="M217.7,320.4c-0.2,0-0.5-0.2-0.5-0.4l-2.1-15.5c0-0.3,0.2-0.5,0.4-0.6c0.3,0,0.5,0.2,0.6,0.4l2.1,15.5
		C218.2,320.1,218,320.3,217.7,320.4C217.7,320.4,217.7,320.4,217.7,320.4z"></path><path class="st1" d="M212.3,320.4c-0.3,0-0.5-0.2-0.5-0.5l-1.1-15.5c0-0.3,0.2-0.5,0.5-0.5c0.3,0,0.5,0.2,0.5,0.5l1.1,15.5
		C212.8,320.1,212.6,320.3,212.3,320.4C212.3,320.4,212.3,320.4,212.3,320.4z"></path></g><g id="character2"><g><path class="st0" d="M27.3,355.9c0,0-7.7-105.5,13.4-118.2c21.1-12.7,47.2-0.2,56.8,49.1s7.8,61.8,7.8,61.8"></path><path class="st1" d="M27.3,356.4c-0.3,0-0.5-0.2-0.5-0.5c0-0.3-1.9-26.7-1.2-54.4c1-37.3,6-58.9,14.9-64.3
			c8.8-5.3,18.5-6.1,27.1-2.3c14.4,6.4,25.2,24.8,30.4,51.8c9.5,48.9,7.9,61.5,7.8,62c0,0.3-0.3,0.5-0.6,0.4c-0.3,0-0.5-0.3-0.4-0.6
			c0-0.1,1.7-13.1-7.8-61.7c-5.2-26.7-15.8-44.8-29.9-51c-8.4-3.7-17.7-2.9-26.2,2.2c-20.6,12.4-13.3,116.7-13.2,117.7
			C27.8,356.2,27.6,356.4,27.3,356.4C27.3,356.4,27.3,356.4,27.3,356.4z"></path></g><g><path class="st0" d="M182.4,244.2c3.2-4.2,5.4-9,6.6-14.1c0.7-2.8,3.9-4.1,5.2-7.4c1.2-3.3,1.8-4.7,3.6-4.7c1.8,0,2.6,4.3,1.5,8
			c2.2-1,4.2-2.3,5.9-3.9c2.8-2.5,5.5-5.3,8-8.1c2.8-3.2,4.4,0.1,2.6,2.7l-6.2,8.5c2.5-1.3,4.9-3,6.9-5c3.2-3.2,3.7-4.8,5-4.6
			c1.2,0.2-0.7,6.5-3.9,9.6c1.8-1,3.5-2.2,5-3.6c2-2,2.2,4.3-3.1,8.5c0,0-3.8,7-9.7,8.9c-6,2-6.9,2.2-6.9,2.2l-1.6,5.8
			C201.2,247,188.6,250.7,182.4,244.2z"></path><path class="st1" d="M193.3,248.6c-3.8,0-8.2-0.8-11.2-4c-0.2-0.2-0.2-0.5,0-0.6c3.1-4.1,5.3-8.8,6.5-13.9
			c0.4-1.5,1.4-2.6,2.5-3.7c1-1.1,2.1-2.2,2.7-3.7c1.2-3.2,1.9-5,4-5.1c0.4,0,0.9,0.1,1.4,0.8c1,1.3,1.3,4.1,0.8,6.8
			c1.8-0.9,3.4-2,4.9-3.4c2.8-2.5,5.5-5.2,7.9-8.1c1.9-2.2,3.1-1.4,3.5-1.2c1,0.8,1.1,2.8-0.2,4.5l-4.8,6.7c1.7-1.1,3.4-2.4,4.8-3.8
			c1.2-1.2,2-2.2,2.7-2.9c1.1-1.3,1.7-2,2.7-1.8c0.2,0,0.5,0.2,0.7,0.7c0.4,1.2-0.7,4.6-2.5,7.5c0.9-0.6,1.7-1.3,2.4-2
			c0.6-0.6,1-0.6,1.3-0.5c0.3,0.1,0.6,0.3,0.8,1.1c0.3,1.8-0.9,5.7-4.4,8.6c-0.5,0.9-4.2,7.2-10,9.1c-4.4,1.4-6.1,1.9-6.7,2.1
			l-1.6,5.6c0,0.2-0.2,0.3-0.3,0.3C201,247.6,197.5,248.6,193.3,248.6z M183.1,244.2c5.5,5.3,15.9,2.9,17.7,2.4l1.6-5.6
			c0.1-0.2,0.2-0.3,0.4-0.4c0,0,1.1-0.2,6.9-2.1c5.7-1.9,9.4-8.6,9.5-8.7c0-0.1,0.1-0.1,0.1-0.2c2.8-2.2,4.2-5.3,4.2-7.1
			c0-0.5-0.1-0.8-0.1-0.8c0,0-0.1,0.1-0.3,0.2c-1.5,1.5-3.3,2.7-5.1,3.7c-0.2,0.1-0.5,0.1-0.6-0.1c-0.1-0.2-0.1-0.5,0.1-0.7
			c3-2.9,4.5-7.9,4.1-8.8c-0.4,0-0.8,0.4-1.7,1.5c-0.6,0.7-1.5,1.8-2.7,3c-2.1,2-4.5,3.8-7,5.1c-0.2,0.1-0.5,0.1-0.6-0.1
			c-0.2-0.2-0.2-0.4,0-0.6l6.2-8.5c1-1.3,0.8-2.8,0.3-3.2c-0.4-0.3-1.2,0.1-2.1,1c-2.5,2.9-5.2,5.6-8,8.2c-1.8,1.7-3.8,3-6.1,4
			c-0.2,0.1-0.4,0-0.5-0.1c-0.1-0.1-0.2-0.3-0.2-0.5c0.8-2.8,0.4-5.9-0.4-6.9c-0.3-0.4-0.5-0.4-0.6-0.4c-1.4,0-1.9,1.1-3.1,4.4
			c-0.7,1.8-1.8,3-2.9,4.1c-1.1,1.1-2,2-2.3,3.3C188.3,235.3,186.2,240,183.1,244.2z"></path></g><path class="st1" d="M200.5,241.6C200.5,241.6,200.5,241.6,200.5,241.6c-0.3,0-7.6-0.3-10.6-3.5c-0.2-0.2-0.2-0.5,0-0.7
		c0.2-0.2,0.5-0.2,0.7,0c2.7,2.9,9.8,3.2,9.8,3.2c0.3,0,0.5,0.2,0.5,0.5C201,241.4,200.8,241.6,200.5,241.6z"></path><path class="st1" d="M194.1,229.8c-0.2,0-0.3-0.1-0.4-0.2c-0.1-0.2-0.1-0.5,0.1-0.7c0,0,2.5-1.6,5.8-3.6c0.2-0.1,0.5-0.1,0.7,0.2
		c0.1,0.2,0.1,0.5-0.2,0.7c-3.3,2-5.8,3.6-5.8,3.6C194.3,229.8,194.2,229.8,194.1,229.8z"></path><path class="st1" d="M210.4,234.3c-0.2,0-0.3-0.1-0.4-0.2c-0.1-0.2-0.1-0.5,0.2-0.7c3.6-2.3,3.9-3.6,4.2-4.9
		c0.1-0.4,0.2-0.9,0.2-1.3c0.1-1.1,0.2-2.1,1.1-2.7c0.4-0.3,0.9-0.3,1.5,0c1,0.5,2.1,2,2.3,4.5c0,0.3-0.2,0.5-0.5,0.5
		c-0.3,0-0.5-0.2-0.5-0.5c-0.2-1.9-1-3.3-1.8-3.6c-0.1-0.1-0.3-0.1-0.5,0c-0.5,0.3-0.5,1.1-0.7,2c-0.1,0.5-0.1,0.9-0.2,1.4
		c-0.4,1.7-1,3.2-4.6,5.5C210.6,234.3,210.5,234.3,210.4,234.3z"></path><path class="st1" d="M212.6,232.6c-0.2,0-0.4-0.1-0.5-0.3c-1.5-4.2-3.8-6.3-7.3-6.8c-0.3,0-0.5-0.3-0.4-0.6s0.3-0.5,0.6-0.4
		c3.9,0.5,6.5,2.9,8.1,7.4c0.1,0.3,0,0.5-0.3,0.6C212.7,232.6,212.7,232.6,212.6,232.6z"></path><path class="st1" d="M204.1,235.5c-0.3,0-0.5-0.2-0.5-0.5c0-0.1-0.4-5.4-4-6.9c-0.3-0.1-0.4-0.4-0.3-0.7c0.1-0.3,0.4-0.4,0.7-0.3
		c4.2,1.8,4.6,7.5,4.6,7.8C204.7,235.3,204.5,235.5,204.1,235.5C204.2,235.5,204.2,235.5,204.1,235.5z"></path><path class="st1" d="M52.9,247c-0.1,0-0.2,0-0.3-0.1c-0.2-0.2-0.3-0.5-0.1-0.7c1.2-1.6,2.6-3.2,4-4.7c0.2-0.2,0.5-0.2,0.7,0
		c0.2,0.2,0.2,0.5,0,0.7l-3.9,4.7C53.2,247,53.1,247,52.9,247z"></path><path class="st1" d="M121.6,233.5c-0.1,0-0.2,0-0.3-0.1l-0.4-0.3c-0.2-0.2-0.3-0.5-0.1-0.7c0.1-0.2,0.4-0.3,0.7-0.2
		c0.2,0.1,0.3,0.2,0.5,0.3c0.2,0.2,0.3,0.5,0.1,0.7C121.9,233.4,121.8,233.5,121.6,233.5z"></path><g><path class="st0" d="M121.2,232.6c0,0.1-7.9,21.9-20,35l-44.3-25.8c1.9-2.1,4.1-4,6.3-5.8c1.4-2.5,3.4-4.6,5.8-6.1
			c2.3-1.1,4.6-2,6.9-2.9c-1-6.9-1.6-13.8-1.8-20.8L91,216.7l1.2,6c1.8-0.4,3.7-0.4,5.5-0.2c6.4,1.1,7.2,2.2,7.2,2.2
			C110.7,226.6,116.1,229.3,121.2,232.6z"></path><path class="st1" d="M101.2,268.1c-0.1,0-0.2,0-0.3-0.1l-44.3-25.8c-0.1-0.1-0.2-0.2-0.2-0.4c0-0.1,0-0.3,0.1-0.4
			c1.9-2.1,4-4,6.3-5.8c1.4-2.5,3.5-4.7,5.9-6.2c2.2-1.1,4.4-2,6.6-2.8c-0.9-6.7-1.5-13.6-1.7-20.4c0-0.2,0.1-0.4,0.2-0.4
			c0.2-0.1,0.4-0.1,0.5,0l16.8,10.3c0.1,0.1,0.2,0.2,0.2,0.3l1.1,5.5c1.7-0.3,3.5-0.3,5.2-0.1c5.4,1,7,1.9,7.4,2.2
			c5.7,2,11.2,4.7,16.2,8.1c0.1,0.1,0.2,0.2,0.2,0.4c0,0.1-7.9,22-20.1,35.3C101.4,268.1,101.3,268.1,101.2,268.1z M57.7,241.7
			l43.4,25.3c11.1-12.2,18.5-31.4,19.5-34.1c-4.9-3.2-10.2-5.9-15.8-7.8c-0.1,0-0.2-0.1-0.2-0.2c0,0-1-0.9-6.9-2
			c-1.8-0.2-3.6-0.1-5.4,0.2c-0.3,0-0.5-0.1-0.6-0.4l-1.2-5.7l-15.8-9.7c0.2,6.6,0.8,13.2,1.7,19.8c0,0.2-0.1,0.5-0.3,0.5
			c-2.3,0.8-4.7,1.8-6.9,2.8c-2.3,1.4-4.3,3.4-5.6,5.8c0,0.1-0.1,0.1-0.1,0.2C61.4,238.1,59.5,239.8,57.7,241.7z"></path></g><g><path class="st2" d="M126.3,236.9c-0.6-0.6-2.2-2.1-3.8-3.2c0.9,0.7,1.8,1.4,2.7,2.2C125.6,236.2,125.9,236.5,126.3,236.9z"></path><path class="st1" d="M126.3,237.4c-0.1,0-0.2,0-0.3-0.1c-0.8-0.7-2.3-2.1-3.7-3.2c-0.2-0.2-0.3-0.5-0.1-0.7
			c0.2-0.2,0.5-0.3,0.7-0.1c0.9,0.7,1.8,1.4,2.7,2.2c0.4,0.3,0.7,0.7,1.1,1.1c0.2,0.2,0.2,0.5,0,0.7
			C126.6,237.4,126.5,237.4,126.3,237.4z"></path></g><g><path class="st2" d="M178,308.5c-9.6,5.5-25.8,3.4-41-9.9l3.4,10.5c0,0,5.9-1.2,8.5,2.3c2.7,3.5,5.5,11.9,5.5,11.9l-2.5,3.1
			c0,0,0.2,4.4-8.1,5.9c-6.1,0.9-12.2,1.5-18.4,1.8c-2.4,0.1-4.6,1.2-6.2,3v13.7c0,0-24.7,8.9-64.5,3.5l-1.3-15.3
			c0,0-16.6-4.3-17.9-26.1c-1.1-18,3.1-47,17.6-66.3c0,0,43.9,30.2,50.8,29.2c6.9-1,22.8-38.5,22.8-38.5
			c7.8,8.1,19.5,26.2,23.3,31.2c4.1,5.4,12,12.4,12,12.4s14.3-35.6,16.2-38c1.9-2.4,12.2-1.1,12.2-1.1s14.4,2,15.6,6.4
			C207.1,252.5,187.5,303,178,308.5z"></path><path class="st1" d="M79.7,356.4c-7.5,0-16-0.5-25.2-1.7c-0.2,0-0.4-0.2-0.4-0.5l-1.2-15c-2.4-0.8-16.7-6.3-17.9-26.4
			c-1.2-19.9,3.8-48.2,17.7-66.6c0.2-0.2,0.5-0.3,0.7-0.1c15.1,10.4,45.2,29.8,50.5,29.1c5.5-0.8,18-27.8,22.4-38.2
			c0.1-0.2,0.2-0.3,0.4-0.3c0.2,0,0.3,0,0.5,0.1c5.7,5.9,13.4,17.1,18.6,24.5c2,2.9,3.7,5.4,4.8,6.8c3.4,4.5,9.6,10.2,11.4,11.9
			c2-5,14.2-35.2,16-37.5c2-2.5,11.5-1.5,12.6-1.3c1.5,0.2,14.7,2.2,16,6.7c0.7,2.6-4.6,17.6-10,30.1c-3.5,8.1-12.2,27.4-18.2,30.8
			c-8.8,5.1-24.5,4.2-40.2-8.8l2.7,8.4c1.5-0.2,6.2-0.6,8.6,2.5c2.7,3.5,5.4,11.7,5.6,12c0.1,0.2,0,0.3-0.1,0.5l-2.4,3
			c-0.1,1-0.8,4.8-8.6,6.2c-6.1,0.9-12.3,1.5-18.5,1.8c-2.2,0.1-4.3,1.1-5.8,2.7v13.5c0,0.2-0.1,0.4-0.3,0.5
			C119,351.2,104.3,356.4,79.7,356.4z M55,353.7c36.6,4.9,60.5-2.4,63.6-3.4V337c0-0.1,0-0.2,0.1-0.3c1.7-1.9,4.1-3.1,6.6-3.2
			c6.1-0.3,12.3-0.9,18.3-1.8c7.8-1.4,7.7-5.2,7.7-5.3c0-0.1,0-0.2,0.1-0.3l2.4-2.9c-0.5-1.4-3-8.5-5.3-11.5c-2.5-3.2-8-2.1-8-2.1
			c-0.2,0.1-0.5-0.1-0.6-0.3l-3.4-10.5c-0.1-0.2,0-0.4,0.2-0.6c0.2-0.1,0.4-0.1,0.6,0c15.8,13.8,31.7,14.9,40.4,9.9h0
			c9.8-5.6,28.7-56,27.7-59.8c-0.9-3.3-11.2-5.5-15.1-6c-3.9-0.5-10.5-0.6-11.7,1c-1.5,1.8-11.2,25.6-16.2,37.9
			c-0.1,0.2-0.2,0.3-0.3,0.3c-0.2,0-0.3,0-0.4-0.1c-0.1-0.1-8-7.1-12.1-12.5c-1.1-1.4-2.7-3.8-4.8-6.8c-5-7.2-12.4-17.9-17.9-23.8
			c-1,2.4-4.5,10.3-8.5,18.2c-6.5,12.8-11.3,19.4-14.4,19.9c-6.8,0.9-46.1-25.8-50.8-29c-13.5,18.3-18.4,46-17.2,65.6
			c1.2,21.1,17.3,25.6,17.5,25.6c0.2,0.1,0.4,0.2,0.4,0.4L55,353.7z"></path></g><g><path class="st0" d="M147.1,310.7c9.3-4.7,20.6-7.5,22.9-7.3c2.3,0.1-2.5,4.3-2.5,4.3c4.3-0.1,8.5,0,12.7,0.5
			c6.6,0.8,11.1,3.4,10.7,5.2c-0.4,1.8-5.7,0.1-11.6,0c0,0,6.2,2,8.9,5c2.8,3,2,6.3-1.3,4.2s-6.1-4.7-12-4.3c3.4,1.2,6.6,2.9,9.4,5
			c3.8,3.2,2.8,6.2-0.5,4.6c-3-1.5-6.1-2.9-9.2-4c1.4,1.5,2.6,3.2,3.6,5c1.3,2.7,0.6,4.6-1.9,2.8c-2.5-1.7-3.9-4.2-5.9-4.7
			c-3,0.9-6.1,1.3-9.2,1c-3.1-0.3-6.2-0.8-9.2-1.5C151.9,326.4,151.2,314.5,147.1,310.7z"></path><path class="st1" d="M177.8,332.8c-0.5,0-1.1-0.2-1.9-0.8c-1.1-0.7-1.9-1.6-2.7-2.4c-1-1-1.9-1.9-2.9-2.2c-3,0.9-6.1,1.3-9.3,1
			c-3.1-0.3-6.2-0.8-9.3-1.5c-0.2-0.1-0.4-0.2-0.4-0.5c0-0.1-0.7-11.7-4.6-15.4c-0.1-0.1-0.2-0.3-0.2-0.4s0.1-0.3,0.3-0.4
			c9.7-4.9,20.8-7.5,23.1-7.4c0.7,0,1,0.4,1.1,0.7c0.3,0.9-1,2.4-2.3,3.6c3.8-0.1,7.7,0.1,11.5,0.6c5.1,0.6,9.4,2.3,10.7,4.2
			c0.5,0.7,0.5,1.2,0.4,1.5c-0.3,1.6-2.6,1.3-6,0.9c-0.9-0.1-1.9-0.2-3-0.3c2,0.9,4.6,2.3,6.2,4c1.7,1.8,2.3,4,1.4,5.1
			c-0.3,0.4-1.3,1.1-3.4-0.2c-0.5-0.3-1-0.7-1.5-1c-2.2-1.5-4.3-2.8-7.5-3.2c2.5,1.1,4.8,2.4,6.9,4.1c2.6,2.1,3.1,4.1,2.4,5.2
			c-0.5,0.7-1.6,1.1-3.4,0.3c-2.4-1.2-4.8-2.3-7.3-3.3c0.9,1.1,1.7,2.4,2.3,3.6c0.9,1.8,0.9,3.3,0.2,3.9
			C178.5,332.6,178.2,332.8,177.8,332.8z M170.3,326.4c0,0,0.1,0,0.1,0c1.3,0.3,2.4,1.4,3.5,2.5c0.8,0.8,1.6,1.6,2.6,2.3
			c0.9,0.6,1.4,0.7,1.6,0.5c0.3-0.2,0.3-1.2-0.4-2.7c-0.9-1.8-2.1-3.4-3.5-4.9c-0.2-0.2-0.2-0.4-0.1-0.6c0.1-0.2,0.4-0.3,0.6-0.2
			c3.2,1.2,6.3,2.5,9.3,4.1c1,0.5,1.8,0.5,2.1,0.1c0.4-0.6-0.1-2.1-2.2-3.9c-2.8-2.1-5.9-3.8-9.3-4.9c-0.2-0.1-0.4-0.3-0.3-0.5
			c0-0.2,0.2-0.4,0.5-0.4c5.2-0.3,8,1.6,10.8,3.4c0.5,0.3,1,0.7,1.5,1c1,0.6,1.8,0.8,2.1,0.4c0.4-0.5,0.2-2.1-1.4-3.8
			c-2.6-2.8-8.7-4.8-8.7-4.8c-0.2-0.1-0.4-0.3-0.3-0.6c0-0.2,0.3-0.4,0.5-0.4c2.2,0,4.3,0.3,6.2,0.5c2.4,0.3,4.8,0.6,5-0.1
			c0-0.2,0-0.5-0.2-0.7c-1-1.4-4.8-3.2-10-3.8c-4.2-0.5-8.5-0.7-12.7-0.5c-0.2,0-0.4-0.1-0.5-0.3s0-0.4,0.1-0.6
			c1.6-1.4,2.9-2.9,3-3.4c0,0-0.1,0-0.2,0c-2.1-0.1-12.8,2.5-22,7c3.5,4,4.3,13.2,4.4,15.2c2.9,0.7,5.8,1.1,8.8,1.4
			c3.1,0.3,6.1-0.1,9-1C170.2,326.4,170.2,326.4,170.3,326.4z"></path></g><path class="st1" d="M155.9,310.9c-0.2,0-0.4-0.1-0.5-0.3c-0.1-0.3,0-0.5,0.3-0.7c3.8-1.6,11.3-2.8,11.6-2.8c0.3,0,0.5,0.1,0.6,0.4
		c0,0.3-0.1,0.5-0.4,0.6c-0.1,0-7.7,1.2-11.4,2.8C156,310.9,155.9,310.9,155.9,310.9z"></path><path class="st1" d="M179.2,313.8C179.2,313.8,179.1,313.8,179.2,313.8c-0.1,0-4.6-0.8-6.5-0.4c-0.3,0.1-0.5-0.1-0.6-0.4
		c-0.1-0.3,0.1-0.5,0.4-0.6c2.1-0.4,6.6,0.3,6.8,0.4c0.3,0,0.5,0.3,0.4,0.6C179.7,313.6,179.4,313.8,179.2,313.8z"></path><path class="st1" d="M174.5,324.2c-0.1,0-0.3,0-0.4-0.2c-0.4-0.4-1-0.7-1.6-0.7c-0.3,0-0.5-0.3-0.5-0.5c0-0.3,0.3-0.5,0.5-0.5
		c0.8,0.1,1.6,0.4,2.2,1c0.2,0.2,0.2,0.5,0,0.7C174.7,324.1,174.6,324.2,174.5,324.2z"></path><path class="st1" d="M174.8,318.6c0,0-0.1,0-0.1,0c-0.6-0.2-1.3-0.3-2-0.3c0,0,0,0,0,0c-0.3,0-0.5-0.2-0.5-0.5
		c0-0.3,0.2-0.5,0.5-0.5c0.8,0,1.5,0.1,2.3,0.3c0.3,0.1,0.4,0.4,0.3,0.6C175.2,318.4,175,318.6,174.8,318.6z"></path><path class="st1" d="M137,299.1c-0.2,0-0.4-0.1-0.5-0.4c-6.7-25.5-10.3-41-10.3-41.1c-0.1-0.3,0.1-0.5,0.4-0.6
		c0.3-0.1,0.5,0.1,0.6,0.4c0,0.2,3.6,15.6,10.3,41.1c0.1,0.3-0.1,0.5-0.4,0.6C137,299.1,137,299.1,137,299.1z"></path><path class="st1" d="M68.2,310.9c-0.1,0-0.3-0.1-0.4-0.2c-0.1-0.1-0.1-0.2-0.1-0.4c0-0.3,2.1-28.9-1-42.7c-0.1-0.3,0.1-0.5,0.4-0.6
		c0.3-0.1,0.5,0.1,0.6,0.4c2.9,12.8,1.3,38.3,1,42.4l71.6-1.4c0,0,0,0,0,0c0.3,0,0.5,0.2,0.5,0.5c0,0.3-0.2,0.5-0.5,0.5L68.2,310.9
		C68.2,310.9,68.2,310.9,68.2,310.9z"></path><path class="st1" d="M68.1,339.5c-3,0-5.8-0.1-8.5-0.2c-0.3,0-0.5-0.3-0.5-0.5c0-0.3,0.3-0.5,0.5-0.5c22.9,1.4,58-4,58.3-4
		c0.3,0,0.5,0.1,0.6,0.4s-0.1,0.5-0.4,0.6C117.8,335.3,90.4,339.5,68.1,339.5z"></path><g><path class="st0" d="M126.6,237.2c0,0-15.9,37.5-22.8,38.5c-6.9,1-50.8-29.2-50.8-29.2l3.9-4.7l44.3,25.8c12.2-13.1,20-35,20-35
			c0.2,0.1,0.3,0.2,0.4,0.3c0.3,0.2,0.6,0.4,0.9,0.7c1.5,1.2,3.1,2.7,3.8,3.2L126.6,237.2z"></path><path class="st1" d="M103.5,276.2c-8.1,0-49-28.1-50.8-29.3c-0.1-0.1-0.2-0.2-0.2-0.3c0-0.1,0-0.3,0.1-0.4l3.9-4.7
			c0.2-0.2,0.4-0.2,0.6-0.1L101,267c11.8-12.9,19.6-34.3,19.6-34.5c0.1-0.1,0.2-0.3,0.3-0.3c0.1,0,0.3,0,0.4,0
			c0.2,0.1,0.3,0.2,0.5,0.3c0.3,0.2,0.6,0.4,0.9,0.7c1.2,0.9,2.4,2,3.2,2.7c0.3,0.2,0.5,0.4,0.6,0.6l0.4,0.4
			c0.1,0.1,0.2,0.4,0.1,0.5c-0.7,1.5-16.1,37.8-23.2,38.8C103.7,276.2,103.6,276.2,103.5,276.2z M53.7,246.4
			c15,10.3,43.6,28.8,49.7,28.8c0.1,0,0.2,0,0.3,0c5.4-0.8,17.8-27.3,22.3-37.9l-0.1-0.1c-0.1-0.1-0.3-0.3-0.6-0.5
			c-0.8-0.7-2-1.8-3.1-2.7c-0.3-0.2-0.6-0.4-0.8-0.6c-1.4,3.6-8.9,22.7-19.9,34.5c-0.2,0.2-0.4,0.2-0.6,0.1L57,242.5L53.7,246.4z"></path></g><path class="st1" d="M92.3,241c-0.1,0-0.2,0-0.2-0.1c-8-4.1-21.3-10.5-22.9-10.5c0,0,0,0,0,0c-0.3,0.1-0.5,0-0.6-0.2
		c-0.1-0.2,0-0.6,0.3-0.7c1.3-0.6,14.8,6,23.1,10.2l3.7-17.5c0.1-0.3,0.3-0.4,0.6-0.4c0.3,0.1,0.4,0.3,0.4,0.6l-3.9,18.2
		c0,0.2-0.1,0.3-0.3,0.3C92.4,241,92.4,241,92.3,241z"></path><path class="st1" d="M85,249.5c-0.1,0-0.2,0-0.2,0c-6.7-0.2-18.2-11.8-18.7-12.2c-0.2-0.2-0.2-0.5,0-0.7c0.2-0.2,0.5-0.2,0.7,0
		c0.1,0.1,11.7,11.8,18.1,11.9c6.1,0.2,7.1-8,7.1-8.1c0-0.2,0.1-0.3,0.3-0.4c0.2-0.1,0.3-0.1,0.5,0c2.3,1.4,8.6,4.7,10.9,3
		c2.3-1.8,1.1-12.6,0.4-16.6c0-0.3,0.1-0.5,0.4-0.6c0.3,0,0.5,0.1,0.6,0.4c0.3,1.5,2.4,15.1-0.8,17.6c-2.9,2.2-9.3-1.3-11.4-2.6
		C92.2,243.5,90.5,249.5,85,249.5z"></path><path class="st1" d="M101.2,268.1c-0.2,0-0.5-0.2-0.5-0.4c-1.7-13.6-8.7-26.8-8.8-26.9c-0.1-0.2,0-0.5,0.2-0.7
		c0.2-0.1,0.5,0,0.7,0.2c0.1,0.1,7.2,13.5,8.9,27.3C101.7,267.8,101.5,268.1,101.2,268.1C101.2,268.1,101.2,268.1,101.2,268.1z"></path><g><path class="st0" d="M80.1,167.2c-13.9-0.4-22.4,8.8-24,19.2c-1.6,10.4,4.5,20,4.5,20l13.6,7.2l32-24.2c0,0,4.9-3.1,0.9-10.2
			C103.2,172.1,86.9,156,80.1,167.2z"></path><path class="st1" d="M74.2,214.2c-0.1,0-0.2,0-0.2-0.1l-13.6-7.2c-0.1,0-0.1-0.1-0.2-0.2c-0.3-0.4-6.1-9.8-4.6-20.3
			c1.5-10,9.6-19.9,24.2-19.7c1.7-2.6,4-3.9,6.8-3.9c7.9,0.1,17.8,10.6,20.9,16.1c4.2,7.4-1.1,10.9-1.1,10.9l-32,24.2
			C74.4,214.2,74.3,214.2,74.2,214.2z M61,206.1l13.2,7l31.7-24c0.2-0.1,4.5-3,0.8-9.6c-2.9-5.2-12.7-15.5-20-15.6
			c-2.6,0-4.6,1.2-6.1,3.6c-0.1,0.2-0.3,0.3-0.4,0.2c-14.2-0.4-22,9.2-23.5,18.8C55.2,196.1,60.3,205,61,206.1z"></path></g><g><path class="st0" d="M58.7,207.5c1.6,7.3,9.1,4.7,9.1,4.7s15.6,16.4,31.6,9.5c13.9-6,12.6-20.6,5.3-35.5c-6-3.1-16.2-7-16.2-7
			S84.7,193,77.8,197c-6.8,4-9.7,5-9.7,6.5c0,1.5,2.8,5.2,2.8,5.2l-3.1,1l-5.9-8.4c-2.6,0.8-4.1,3.5-3.3,6.1
			C58.6,207.4,58.7,207.4,58.7,207.5z"></path><path class="st1" d="M91.2,223.9c-11.9,0-22-9.5-23.6-11.1c-0.9,0.3-3.9,0.9-6.3-0.5c-1.6-0.9-2.7-2.5-3.2-4.7l0-0.1
			c-0.8-2.9,0.8-5.9,3.7-6.7c0.2-0.1,0.4,0,0.6,0.2l5.7,8.1l2.1-0.7c-0.8-1.1-2.5-3.6-2.5-4.9c0-1.4,1.5-2.2,5.1-4.2
			c1.3-0.7,2.9-1.6,4.9-2.7c6.6-3.8,10.5-17.3,10.5-17.5c0-0.1,0.1-0.2,0.3-0.3c0.1-0.1,0.3-0.1,0.4,0c0.1,0,10.2,3.9,16.2,7
			c0.1,0,0.2,0.1,0.2,0.2c5.2,10.8,6.7,19.9,4.2,26.5c-1.6,4.3-4.9,7.6-9.8,9.7C96.8,223.4,94,223.9,91.2,223.9z M67.8,211.7
			c0.1,0,0.3,0.1,0.4,0.2c0.2,0.2,15.5,16,31,9.4c4.6-2,7.7-5.1,9.3-9.1c2.3-6.3,0.9-15.1-4.1-25.6c-5.2-2.7-13.4-5.9-15.5-6.7
			c-0.8,2.6-4.5,13.9-10.8,17.5c-1.9,1.1-3.6,2-4.9,2.7c-3,1.6-4.6,2.5-4.6,3.3c0,1,1.7,3.5,2.7,4.9c0.1,0.1,0.1,0.3,0.1,0.5
			c0,0.2-0.2,0.3-0.3,0.3l-3.1,1c-0.2,0.1-0.4,0-0.6-0.2l-5.7-8.1c-2.1,0.8-3.3,3.1-2.6,5.4l0,0.1c0,0,0,0,0,0
			c0.4,1.9,1.3,3.3,2.7,4.1c2.5,1.4,5.8,0.3,5.8,0.3C67.7,211.7,67.8,211.7,67.8,211.7z"></path></g><path class="st1" d="M87.4,198c-0.7,0-1.4,0-2,0.1c-0.6,0.1-1.2,0.3-1.8,0.6c-0.6,0.3-1,0.7-1.4,1.2c-0.5,0.5-0.9,1.1-1.2,1.7l0,0
		c-0.2,0.3-0.5,0.3-0.7,0.2c0,0,0,0,0,0c-0.2-0.1-0.3-0.3-0.2-0.6c0.1-0.4,0.2-0.8,0.3-1.2c0.1-0.4,0.3-0.8,0.6-1.2
		c0.5-0.8,1.1-1.4,1.9-1.8c0.8-0.4,1.7-0.7,2.6-0.6c0.9,0,1.7,0.2,2.5,0.6c0.3,0.1,0.4,0.4,0.3,0.7c0,0,0,0,0,0
		c-0.1,0.2-0.3,0.3-0.5,0.3L87.4,198z"></path><path class="st1" d="M100.7,188.5c-0.3-0.1-0.6-0.1-1,0c-0.4,0.1-0.7,0.2-1.1,0.3c-0.7,0.3-1.4,0.7-2,1.1c-0.6,0.5-1.1,1.1-1.5,1.7
		c-0.5,0.7-0.9,1.3-1.3,2.1l0,0c-0.2,0.3-0.5,0.3-0.8,0.2c-0.2-0.1-0.3-0.3-0.2-0.6c0.2-0.9,0.5-1.8,0.9-2.6
		c0.5-0.8,1.1-1.6,1.9-2.2c0.8-0.6,1.7-1.1,2.6-1.3c0.5-0.1,1-0.2,1.5-0.2c0.6,0,1.1,0.2,1.6,0.5c0.2,0.2,0.3,0.5,0.1,0.7
		c0,0,0,0,0,0c-0.1,0.2-0.3,0.2-0.5,0.2H100.7z"></path><path class="st1" d="M99.2,205.7c-1.2,0-2.5-0.5-3.1-1.7c-0.1-0.2,0-0.5,0.2-0.7c0.2-0.1,0.5,0,0.7,0.2c0.7,1.2,2.3,1.5,3.4,1
		c0.5-0.2,1.4-0.8,0.9-2.3c-0.2-0.5-0.5-0.8-0.9-1c-1-0.4-2.7,0.2-3.2,0.5c-0.2,0.1-0.5,0-0.7-0.2c-1.5-2.5-2.7-5.1-3.8-7.8
		c-0.1-0.3,0-0.5,0.3-0.6c0.3-0.1,0.5,0,0.6,0.3c0.9,2.5,2.1,5,3.4,7.3c0.8-0.3,2.3-0.9,3.6-0.4c0.7,0.3,1.2,0.8,1.5,1.6
		c0.6,1.8-0.3,3-1.5,3.5C100.3,205.6,99.7,205.7,99.2,205.7z"></path><path class="st1" d="M85.7,204.2c0.7,1.2,1.9,1.8,2.8,1.4c0.8-0.5,1-1.9,0.3-3.1c-0.2-0.4-0.4-0.7-0.7-0.9l-1.1,1.6l-0.3-2.2
		c-0.2,0-0.5,0-0.7,0.2C85.1,201.6,85,203,85.7,204.2z"></path><path class="st1" d="M98.6,195.1c0.6,1.3,1.8,2,2.7,1.6c0.9-0.4,1.1-1.8,0.6-3c-0.2-0.4-0.4-0.7-0.7-1l-1.1,1.5l-0.1-2.2
		c-0.2,0-0.5,0-0.7,0.1C98.3,192.4,98,193.8,98.6,195.1z"></path><path class="st1" d="M91.2,215.5c-0.2,0-0.4,0-0.6,0c-1.8-0.2-3.1-1.4-3.5-3.2c0-0.1,0-0.3,0.1-0.4s0.2-0.2,0.3-0.2l9.3-1.2
		c0.2,0,0.4,0.1,0.5,0.2c0.1,0.2,0.1,0.3,0,0.5C95.8,214.3,93.2,215.5,91.2,215.5z M88.2,212.6c0.4,1.1,1.3,1.8,2.5,1.9
		c1.6,0.2,3.7-0.6,5.2-2.9L88.2,212.6z"></path></g></svg>