<svg width="276" height="276" viewBox="0 0 276 276" fill="none" xmlns="http://www.w3.org/2000/svg">
<path fill-rule="evenodd" clip-rule="evenodd" d="M143.746 208.665L145.722 209.926L161.884 215.147L171.761 216.407L179.842 215.147V229.01L181.458 241.973C180.739 243.293 173.915 243.293 160.986 241.973C152.744 241.131 122.62 240.723 115.762 240.543L115.373 240.532C107.314 240.299 99.3526 240.299 91.4894 240.532V235.671L113.937 224.509L134.049 213.166L143.746 208.665ZM132.295 115.753L133.779 116.864L130.538 122.202L146.325 135.005V145.231L151.323 149.971L154.18 145.231L158.206 139.864L161.067 131.164L160.093 125.432L162.052 125.247C162.061 125.639 162.059 126.034 162.047 126.432C162.403 126.182 167.457 127.591 166.193 129.751C166.766 130.252 167.116 131.026 167.185 131.777C171.369 131.565 179.534 136.594 183.098 139.075C185.186 140.738 186.316 143.137 187.156 145.616L187.354 146.22L187.558 146.841L187.763 147.461C188.9 150.87 190.127 154.248 191.789 157.446C191.825 157.45 191.861 157.456 191.896 157.461C192.998 156.491 194.361 157.423 195.577 157.53C195.929 157.194 196.504 157.108 196.813 157.566L196.835 157.599L181.684 160.592L171.688 195.743L162.984 188.66L158.312 189.356L145.973 193.818L131.622 197.555L98.8621 206.61H94.6901L70.414 200.733L68.2263 200.009C68.9487 191.32 71.7215 182.819 75.1336 174.831C76.1005 172.028 76.1672 168.892 77.0829 166.026C83.8562 135.515 97.7707 136.81 122.242 125.956C119.505 123.409 126.183 116.092 126.792 116.864L126.83 116.861L126.913 116.856L127.02 116.853C127.974 116.825 131.266 116.846 131.621 116.886C131.826 116.485 132.052 116.108 132.295 115.753Z" fill="#0057a3"/>
<path fill-rule="evenodd" clip-rule="evenodd" d="M132.087 115.258C132.849 113.338 135.424 114.084 135.137 116.101C134.965 117.309 134.306 118.585 133.713 119.644C133.23 120.506 132.679 121.347 131.933 121.993C133.262 123.236 134.641 124.434 136.056 125.571C137.599 126.811 139.222 127.955 140.899 129.006C142.37 129.928 143.907 130.745 145.294 131.796C146.583 132.774 147.757 133.95 148.355 135.485C148.992 137.12 148.715 138.808 148.246 140.442L148.192 140.627C147.713 142.245 146.884 144.196 148.034 145.721C148.619 146.498 149.47 147.048 150.205 147.668C150.858 148.22 151.471 148.82 152.033 149.464C153.258 150.869 154.255 152.449 154.884 154.21L154.94 154.37C155.48 155.929 155.874 157.839 155.145 159.37C154.936 159.809 154.262 159.666 154.145 159.239C153.88 158.271 153.894 157.257 153.672 156.276C153.441 155.255 153.057 154.286 152.555 153.369C151.584 151.596 150.269 150.081 148.715 148.8L148.25 148.421C147.037 147.423 145.924 146.365 145.678 144.715C145.414 142.949 146.12 141.267 146.574 139.595C146.89 138.43 146.993 137.314 146.652 136.261C146.234 136.944 145.665 137.593 145.214 138.171C144.317 139.324 143.411 140.469 142.507 141.617C141.581 142.793 140.678 143.989 139.817 145.215C139.432 145.763 139.052 146.315 138.672 146.868C138.387 147.283 137.989 147.698 137.678 148.121C137.754 148.347 137.748 148.609 137.611 148.794C135.961 151.028 133.615 146.366 133.003 145.189C131.757 142.79 130.829 140.242 129.579 137.843C128.283 135.357 126.808 132.938 125.163 130.668C124.169 129.295 123.054 128.006 122.144 126.59C120 128.538 117.179 129.845 114.588 131.029C111.742 132.331 108.784 133.394 105.866 134.523L105.003 134.859C99.9743 136.826 94.8224 138.988 90.6423 142.483C85.7304 146.59 82.8244 152.315 80.6611 158.243C78.1707 165.067 76.1104 172.076 74.1898 179.08C73.207 182.664 72.2744 186.264 71.3977 189.875C70.6252 193.057 69.9848 196.27 69.0905 199.419C70.9043 199.355 72.9728 200.058 74.5213 200.262C81.5785 201.188 88.5407 202.664 95.2036 205.22C96.0266 205.536 96.2647 206.36 96.0855 207.028C96.5601 206.894 97.0344 206.758 97.509 206.624C96.989 205.825 97.2372 204.397 97.2781 203.512L97.2806 203.451C97.3226 202.271 97.4503 201.09 97.5331 199.912C97.6907 197.667 97.896 195.439 98.1688 193.207L98.2385 192.649C98.5477 190.22 98.7763 187.778 99.1137 185.354L99.1536 185.076C98.9918 184.456 98.8034 183.843 98.6057 183.233C98.0788 181.608 97.3352 180.079 96.6835 178.505C96.6066 178.32 96.8699 178.214 96.9929 178.325C98.0966 179.32 98.9733 180.583 99.6776 181.904C99.6898 181.841 99.7006 181.779 99.7133 181.717L99.7937 181.32C99.9919 180.353 100.233 179.335 100.825 178.551C100.888 178.467 101.012 178.45 101.072 178.551C101.638 179.512 101.702 180.729 101.789 181.822C101.887 183.059 101.9 184.311 101.882 185.552C101.849 187.976 101.678 190.406 101.542 192.826C101.409 195.204 101.148 197.552 100.811 199.907L100.746 200.348C100.582 201.469 100.447 202.604 100.229 203.717L100.168 204.02C100.052 204.572 99.9804 205.35 99.7491 205.997C105.7 204.332 111.66 202.706 117.631 201.109C121.947 199.954 126.267 198.817 130.586 197.672C130.814 197.26 131.097 196.876 131.451 196.532C132.618 195.399 134.164 194.894 135.582 195.766C135.698 195.837 135.707 196.018 135.582 196.086C135.311 196.235 135.039 196.388 134.771 196.547L137.364 195.843C139.302 195.316 141.264 194.658 143.248 194.291C146.901 192.484 150.831 191.175 154.68 189.882L155.134 189.728C157.105 189.054 159.143 188.3 161.179 187.927C162.67 187.653 164.42 187.983 165.019 189.514C165.778 190.016 166.492 190.605 167.181 191.185C167.679 191.603 168.157 192.049 168.643 192.482L168.732 192.561C169.129 192.906 169.443 193.137 169.541 193.687C169.591 193.971 169.411 194.355 169.062 194.317C167.993 194.203 167.124 192.961 166.4 192.219C165.84 191.646 165.275 191.053 164.764 190.423C164.466 190.586 164.058 190.557 163.868 190.196C162.885 188.33 160.191 189.623 158.701 190.066L156.565 190.7C155.498 191.017 154.431 191.336 153.366 191.66C150.438 192.551 147.524 193.549 144.57 194.368C144.834 194.659 144.798 195.177 144.296 195.374C141.983 196.284 139.446 196.754 137.043 197.379C135.526 197.773 134.01 198.17 132.495 198.569C132.235 198.991 132.048 199.469 131.97 200.024C131.68 202.068 132.238 204.426 132.781 206.402L132.863 206.697C133.31 208.286 133.967 210.234 135.334 211.237C135.668 211.482 136.093 211.652 136.522 211.691C139.199 210.31 141.876 208.928 144.554 207.55C145.05 207.294 145.509 207.64 145.62 208.051C146.564 207.896 147.507 207.651 148.365 207.359C149.807 206.868 150.933 205.932 152.285 205.284C154.9 204.031 157.572 205.57 159.914 206.74L160.453 207.006C161.504 207.517 163.688 208.498 164.192 207.101C164.68 205.749 163.139 204.305 162.144 203.696C160.957 202.971 159.576 202.583 158.235 202.259C157.47 202.075 156.695 201.924 155.915 201.814C155.031 201.689 154.118 201.708 153.266 201.42C152.843 201.278 152.778 200.604 153.266 200.493C154.577 200.194 156.141 200.52 157.509 200.853L158.224 201.03C159.602 201.369 160.993 201.794 162.248 202.47C163.16 202.962 164.124 203.71 164.753 204.624C165.299 204.115 165.979 204.132 166.688 204.321L167.072 204.428C167.707 204.605 168.222 204.726 168.84 204.604C168.922 204.153 169.006 203.702 169.096 203.252C169.976 198.82 170.942 194.406 172.007 190.015C173.845 182.441 175.972 174.95 178.369 167.536L178.61 166.795C179.163 165.099 179.608 163.252 180.499 161.694C181.342 160.221 182.693 159.372 184.298 158.923C186.119 158.413 188.033 158.146 189.891 157.802C190.305 157.725 190.721 157.652 191.136 157.577C190.785 156.942 190.523 156.222 190.288 155.669L190.246 155.573C189.74 154.416 189.285 153.237 188.846 152.053L188.517 151.162C187.724 149.018 186.905 146.909 185.79 144.903C184.617 142.792 183.06 141.067 181.118 139.638C177.161 136.726 172.391 135.241 168.552 132.128C168.395 132.001 168.597 131.783 168.756 131.863C171.348 133.169 174.146 134.057 176.842 135.12L177.374 135.33C179.505 136.177 181.669 137.099 183.513 138.47C185.569 139.999 187.188 141.898 188.406 144.155C189.605 146.381 190.372 148.872 191.219 151.25L191.445 151.883C191.787 152.833 192.139 153.78 192.543 154.704C192.864 155.438 193.462 156.276 193.735 157.114C194.479 156.984 195.223 156.855 195.968 156.73C212.106 154.029 228.425 152.441 244.779 151.977C245.419 151.959 245.75 152.571 245.656 153.131C244.086 162.435 242.691 171.772 241.161 181.083C240.493 185.147 239.812 189.208 239.114 193.267C238.761 195.324 238.353 197.372 238.018 199.432C237.748 201.095 237.552 202.771 237.088 204.396C236.673 205.852 236.034 207.257 234.986 208.368C233.856 209.566 232.279 210.146 230.692 210.42C226.662 211.116 222.528 211.4 218.466 211.863L196.836 214.33C197.152 217.21 197.176 220.046 197.031 222.96L196.948 224.55C196.881 225.83 196.8 227.111 196.617 228.378C196.387 229.966 195.662 231.311 194.594 232.498C193.614 233.587 192.423 234.517 191.265 235.408C190.062 236.333 188.82 237.226 187.406 237.798L187.222 237.871C185.982 238.356 183.655 239.108 181.96 238.833C182.182 239.946 182.61 241.143 182.23 242.245C182.054 242.756 181.387 243.011 180.978 242.576C180.168 241.714 180.105 240.574 179.913 239.449C179.714 238.278 179.542 237.103 179.389 235.925C179.093 233.647 178.863 231.349 178.793 229.052C178.721 226.693 178.749 224.331 178.876 221.974C178.941 220.764 179.022 219.555 179.175 218.353C179.24 217.84 179.307 217.327 179.383 216.815C179.411 216.629 179.442 216.443 179.475 216.258L177.534 216.478C174.557 216.811 171.579 217.112 168.581 217.158C168.226 217.164 167.953 217.002 167.774 216.766C167.584 217.076 167.253 217.299 166.779 217.297C162.592 217.281 158.694 215.909 154.886 214.291C152.966 213.476 151.077 212.593 149.155 211.784C147.361 211.029 145.443 210.491 143.692 209.641L139.091 212.06C139.057 212.179 139.014 212.292 138.968 212.386C138.668 212.999 138.078 213.331 137.475 213.582C136.896 213.823 136.296 213.898 135.712 213.837C132.223 215.67 128.733 217.501 125.24 219.328L121.747 221.154C114.787 224.787 107.855 228.48 100.851 232.027L100.336 232.288C97.9169 233.504 95.3193 234.736 92.6347 235.656C92.587 236.337 92.6171 237 92.6741 237.721L92.6878 237.878C92.7678 238.73 92.9394 239.798 92.2576 240.405C91.903 240.72 91.2694 240.721 91.0282 240.246C90.5906 239.383 90.9835 238.023 91.1222 237.086C91.1714 236.753 91.2314 236.41 91.3201 236.078C88.2425 236.996 85.0717 237.442 81.9398 236.926C78.8906 236.424 76.529 234.498 74.6251 232.143C72.6158 229.657 71.188 226.76 70.4219 223.654C69.5501 220.121 69.4931 216.471 69.5136 212.852C69.5353 208.997 69.6776 205.124 70.1452 201.295C69.6328 201.174 69.0647 201.07 68.5469 201.106C68.2905 201.517 67.7931 201.69 67.3436 201.637C66.3662 202.718 68.8454 203.822 69.6377 204.099C69.9128 204.195 69.8834 204.643 69.566 204.629L69.3662 204.62C68.1419 204.555 66.8771 204.345 66.1573 203.204C65.5805 202.29 65.7538 201.207 66.4414 200.461C66.8956 196.156 67.9813 191.964 68.9918 187.765C69.9834 183.643 71.0862 179.547 72.255 175.472L72.7791 173.648C74.6194 167.259 76.5431 160.818 79.0817 154.683C80.3493 151.619 81.8096 148.612 83.7891 145.941C85.6343 143.451 87.8127 141.32 90.3168 139.5C94.9849 136.107 100.462 134.057 105.844 132.104L106.085 132.016C108.874 131.005 111.656 129.981 114.414 128.885C116.852 127.916 119.188 126.688 121.615 125.704C121.536 125.56 121.46 125.415 121.387 125.268L121.342 125.306C121.335 125.312 121.327 125.318 121.318 125.324C121.074 125.493 120.715 125.41 120.514 125.22C119.946 124.683 120.138 124.086 120.517 123.529L120.567 123.458C121.03 122.807 121.444 122.118 121.872 121.444L122.14 121.022C122.858 119.894 123.613 118.76 124.571 117.828C125.014 117.396 125.5 117.073 126.014 116.832C125.97 116.739 126.356 116.548 126.466 116.644C128.096 116.046 129.971 116.172 131.748 116.337M195.79 214.449L193.523 214.707C191.03 214.992 188.536 215.267 186.041 215.539L180.623 216.13C180.609 216.439 180.572 216.742 180.565 216.976C180.529 218.182 180.503 219.388 180.478 220.594C180.428 223.012 180.483 225.431 180.642 227.844C180.796 230.182 180.998 232.521 181.313 234.843L181.378 235.307L181.415 235.551C181.672 235.576 181.924 235.699 182.134 235.95C182.593 236.499 184.252 235.965 184.9 235.734C185.966 235.354 186.97 234.712 187.896 234.067C188.8 233.438 189.614 232.705 190.397 231.932L191.037 231.297C191.674 230.663 192.312 229.987 192.702 229.189C193.231 228.106 193.3 226.778 193.455 225.599C193.646 224.149 193.874 222.699 194.114 221.256M130.001 199.228L129.765 199.29C121.226 201.565 112.7 203.907 104.135 206.081C99.896 207.157 95.6371 208.155 91.3931 209.211L90.706 209.383C87.358 210.232 83.9698 211.253 81.4059 213.687C81.3113 213.777 81.1739 213.639 81.263 213.544C84.0262 210.595 87.956 209.347 91.7293 208.264C92.4268 208.064 93.1252 207.869 93.8228 207.67C88.6912 205.836 83.4786 204.24 78.1457 203.102C76.7725 202.809 75.3833 202.594 74.0111 202.3C73.0542 202.095 72.1196 201.798 71.1728 201.552L70.428 201.364L70.4181 203.724C70.4057 207.066 70.4117 210.406 70.5817 213.748L70.6139 214.367C70.8124 218.086 71.1221 221.882 72.4386 225.389C73.5083 228.239 75.2134 230.923 77.4432 232.999C78.5715 234.049 79.7845 234.867 81.284 235.27C82.6763 235.645 84.135 235.689 85.5662 235.589C92.4313 235.109 98.5423 231.37 104.506 228.274C114.26 223.211 124.015 218.15 133.779 213.107C133.515 212.926 133.266 212.717 133.04 212.483C131.731 211.127 131.04 209.271 130.587 207.474C130.104 205.561 129.815 203.511 129.782 201.536M142.424 215.061C142.51 215.015 142.61 215.073 142.614 215.17C142.644 215.918 142.232 216.656 141.924 217.329L141.892 217.401C141.518 218.235 141.108 219.058 140.684 219.869C139.838 221.487 138.958 223.089 138.039 224.668C136.193 227.844 134.141 230.886 131.715 233.651C131.167 234.276 130.266 233.475 130.617 232.802C132.313 229.56 134.289 226.498 136.323 223.463C137.341 221.944 138.359 220.423 139.388 218.91C139.817 218.279 140.251 217.65 140.697 217.031L140.967 216.66M243.698 153.834C235.129 154.094 226.57 154.654 218.042 155.532C210.111 156.348 202.209 157.435 194.351 158.79C192.71 159.073 191.071 159.368 189.434 159.674L188.452 159.859C186.814 160.17 184.814 160.299 183.356 161.176C181.819 162.1 181.404 164.032 180.892 165.626C180.291 167.499 179.705 169.379 179.135 171.262C176.871 178.742 174.803 186.286 172.958 193.88C172.042 197.65 171.229 201.44 170.373 205.223C169.612 208.585 168.773 211.908 167.896 215.236C168.004 215.151 168.137 215.087 168.297 215.053C172.651 214.124 177.096 213.721 181.515 213.207L181.943 213.157C186.515 212.618 191.087 212.083 195.661 211.568L225.949 208.153C227.735 207.952 229.648 207.924 231.387 207.444C234.342 206.626 235.035 203.314 235.531 200.675L235.546 200.596C237.041 192.625 238.231 184.585 239.625 176.594M168.601 205.97C167.425 205.892 165.816 204.812 164.923 204.89C165.392 205.678 165.603 206.576 165.333 207.536C164.582 210.206 161.185 208.824 159.549 208.009C158.207 207.339 156.912 206.521 155.426 206.207C153.744 205.853 152.604 206.523 151.182 207.297C150.015 207.932 148.743 208.388 147.435 208.624C146.74 208.749 146.08 208.763 145.42 208.714C145.381 208.746 145.336 208.776 145.285 208.803L144.936 208.986C146.513 209.059 148.119 209.547 149.587 209.993C151.107 210.456 152.6 211.014 154.085 211.584L155.546 212.147C159.149 213.531 162.879 214.844 166.779 214.833C167.059 214.832 167.289 214.91 167.47 215.037M162.022 197.603C163.184 197.46 164.256 197.613 165.184 198.371C166.304 199.285 167.056 200.802 168.665 200.901C169.134 200.93 169.243 201.592 168.777 201.73C167.579 202.085 166.609 201.436 165.793 200.592L165.244 200.017C164.438 199.18 163.694 198.533 162.325 198.583C160.859 198.636 159.391 198.976 157.935 199.148C156.285 199.344 154.636 199.511 152.981 199.654C152.904 199.661 152.891 199.54 152.963 199.522L154.817 199.06M160.901 192.841L161.092 192.822C162.779 192.658 164.322 192.651 165.828 193.561L166.117 193.736C167.476 194.564 168.954 195.539 169.803 196.879C169.942 197.099 169.713 197.357 169.48 197.301C167.848 196.908 166.654 195.707 165.281 194.809C163.741 193.8 162.149 193.966 160.392 194.123C158.691 194.275 156.991 194.483 155.307 194.767C153.724 195.034 152.137 195.456 150.538 195.59L150.538 195.587C150.356 195.586 150.252 195.311 150.438 195.218C152.06 194.406 153.939 194.022 155.704 193.651M212.146 176.126C211.983 175.344 212.942 174.981 213.387 175.601L213.481 175.732C214.442 177.051 215.831 178.707 215.76 180.385C216.605 180.404 217.48 180.918 217.809 181.682C217.961 182.035 218.013 182.454 217.979 182.888C218.747 182.947 219.584 183.453 220.053 183.944C220.831 184.76 220.892 185.912 220.334 186.865C219.118 188.942 216.46 189.697 214.216 189.866L214.136 189.872C211.819 190.032 208.48 189.989 206.891 187.996C205.359 186.073 207.052 184.516 208.79 183.671C208.337 183.257 208.103 182.664 208.323 182.038C208.71 180.937 210.075 180.512 210.846 179.748C211.786 178.815 212.408 177.536 212.16 176.199M213.419 177.816C213.164 178.93 212.536 179.948 211.662 180.755C211.327 181.063 210.961 181.338 210.573 181.574L210.526 181.601C210.181 181.796 209.333 182.159 209.399 182.595C209.466 183.042 210.847 183.743 211.223 183.743C211.309 183.743 211.357 183.877 211.27 183.916C210.588 184.218 209.992 184.348 209.325 184.029C208.879 184.485 208.446 184.957 208.017 185.425C207.259 186.253 207.518 187.127 208.415 187.743C209.854 188.734 212.043 188.71 213.723 188.638C215.414 188.566 217.221 188.187 218.542 187.058L218.6 187.008C219.318 186.368 219.973 185.283 218.874 184.667C218.443 184.426 217.978 184.44 217.57 184.322C217.187 185.074 216.567 185.676 215.81 185.792C215.198 185.886 214.776 185.115 215.333 184.746L215.458 184.668C216.157 184.221 216.753 183.532 216.737 182.635C216.727 182.012 215.859 181.226 215.294 181.811L215.268 181.839C214.795 182.373 213.963 181.7 214.274 181.108L214.289 181.081M103.137 146.853C103.135 146.719 103.323 146.669 103.388 146.785C104.486 148.721 105.06 151.094 105.644 153.227C106.257 155.461 106.751 157.718 107.195 159.992C108.095 164.596 108.574 169.173 108.607 173.865C108.611 174.535 107.522 174.713 107.416 174.027C106.709 169.463 106.032 164.894 105.319 160.331C104.961 158.036 104.544 155.75 104.144 153.462M114.003 150.225C113.922 149.958 114.31 149.869 114.409 150.113C116.612 155.534 117.358 161.677 115.943 167.396C115.727 168.271 114.449 167.892 114.612 167.028M142.415 145.409C142.404 145.209 142.663 145.177 142.761 145.315C143.804 146.789 144.237 148.764 146.068 149.526C146.983 149.906 148.011 149.84 148.819 150.482C149.359 150.912 149.773 151.59 149.368 152.241C149.237 152.452 148.871 152.557 148.694 152.328C148.435 151.995 148.298 151.597 147.946 151.347C147.45 150.995 146.781 150.974 146.212 150.808C145.476 150.594 144.827 150.22 144.296 149.664M159.852 120.818C159.96 120.763 160.063 120.798 160.132 120.892C160.23 121.024 160.218 121.154 160.098 121.245C160.258 121.574 160.448 122.399 160.475 122.519C160.585 123.006 160.702 123.49 160.824 123.973C161.071 124.949 161.287 125.932 161.534 126.907C161.796 127.941 162.108 128.965 162.455 129.973C162.477 130.038 162.502 130.105 162.528 130.173L162.567 130.275L162.577 130.259C162.648 130.147 162.795 130.226 162.777 130.344C162.761 130.451 162.739 130.558 162.721 130.666L162.757 130.763C162.984 131.375 163.14 132.021 162.723 132.561C162.567 132.763 162.396 132.883 162.182 132.919C161.84 134.051 161.41 135.163 160.949 136.23L160.815 136.542C160.138 138.099 159.415 139.636 158.338 140.962C157.161 142.409 155.542 143.398 154.516 144.984C154.04 145.721 153.708 146.497 153.438 147.331L153.337 147.647C153.146 148.236 152.925 148.807 152.374 149.153C152.198 149.263 151.934 149.228 151.792 149.078C150.661 147.879 151.845 145.639 152.527 144.478C153.475 142.864 154.847 141.831 156.22 140.613C157.701 139.299 158.645 137.543 159.559 135.813C160.118 134.753 160.659 133.67 161.227 132.605C160.633 132.078 160.443 131.033 160.242 130.306L160.223 130.24C159.891 129.076 159.626 127.882 159.459 126.682C159.298 125.529 159.231 124.392 159.274 123.232L159.286 122.937M162.061 126.308C161.93 126.127 162.147 125.923 162.327 125.961C163.423 126.188 164.493 126.852 165.476 127.39L165.581 127.447C166.366 127.871 167.155 128.391 167.567 129.215C168.015 130.11 167.978 131.142 167.917 132.115L167.911 132.206C167.836 133.373 167.824 134.586 167.578 135.732C167.452 136.319 166.922 136.484 166.469 136.345C165.93 138.052 164.415 139.309 163.309 140.656C161.899 142.373 162.164 144.691 162.312 146.759C162.371 147.596 161.333 147.834 160.798 147.387L159.565 146.361C159.359 146.189 159.154 146.017 158.95 145.845C158.775 145.697 158.601 145.549 158.429 145.398L158.172 145.17C158.058 145.068 157.555 144.505 157.408 144.481C157.052 144.424 156.205 145.366 155.916 145.661L155.879 145.698C155.334 146.234 154.841 146.81 154.382 147.422C154.298 147.534 154.133 147.441 154.193 147.311C154.604 146.428 155.082 145.584 155.65 144.794L155.765 144.637C156.142 144.126 156.649 143.226 157.316 143.075C158.13 142.891 158.943 143.709 159.535 144.164L159.572 144.192C159.854 144.404 160.133 144.62 160.411 144.837C160.382 143.297 160.575 141.742 161.368 140.415C161.927 139.479 162.765 138.786 163.482 137.982C164.279 137.087 164.696 135.987 165.418 135.054C165.511 134.934 165.64 134.87 165.778 134.849C165.806 134.099 165.916 133.342 166.001 132.601L166.026 132.379C166.112 131.573 166.315 130.589 165.922 129.835C165.55 129.122 164.697 128.619 164.066 128.135L163.55 127.734M126.52 117.789C126.191 117.98 125.882 118.218 125.603 118.515C124.723 119.451 124.093 120.616 123.481 121.736C123.151 122.34 122.834 122.95 122.501 123.552C122.357 123.814 122.208 124.073 122.058 124.332C121.988 124.451 121.782 124.688 121.679 124.834C121.793 124.994 121.911 125.151 122.031 125.307C122.076 125.366 125.233 128.814 126.334 130.164C128.019 132.231 129.525 134.414 130.813 136.751C132.074 139.039 133.034 141.462 134.202 143.795C134.787 144.963 135.44 146.123 136.272 147.133C136.304 147.173 136.338 147.21 136.371 147.249C136.689 146.388 137.503 145.467 137.903 144.938L137.94 144.888C138.847 143.663 139.804 142.475 140.783 141.306C141.676 140.24 142.592 139.196 143.531 138.169L143.884 137.785C144.538 137.077 145.368 136.017 146.325 135.512C146.223 135.328 146.104 135.147 145.968 134.968C145.071 133.793 143.803 132.94 142.552 132.171L141.741 131.676C138.683 129.808 135.673 127.853 133.018 125.426C131.614 124.142 130.229 122.796 129.048 121.298L128.631 120.768M131.622 116.864C130.191 116.984 128.644 116.956 127.321 117.423C128.497 118.538 129.615 119.742 130.764 120.876C130.866 120.109 131.075 119.352 131.253 118.604" fill="black"/>
<path fill-rule="evenodd" clip-rule="evenodd" d="M143.71 44.9422C146.508 44.3751 149.38 44.0222 152.237 44.1284L152.457 44.137C154.606 44.2233 157.328 44.4143 159.203 45.6699C159.311 45.5612 159.484 45.5054 159.642 45.5808C161.87 46.6494 164.321 47.4219 166.667 48.1896C169.002 48.9535 171.425 49.4578 173.872 49.6611C174.793 49.7376 175.581 50.7366 174.998 51.6327C174.86 51.8462 174.725 52.0619 174.59 52.2781C174.815 52.2545 175.04 52.2302 175.265 52.2073C176.006 52.1325 176.746 52.9266 176.702 53.6511C176.674 54.1068 176.625 54.557 176.553 55.0019C176.835 54.996 177.116 55.0385 177.387 55.1535C178.758 55.7356 178.663 57.3774 178.56 58.6265C178.418 60.3599 177.773 62.1959 176.575 63.4933C177.469 64.4268 178.102 65.5416 178.48 66.8656C178.754 67.8324 178.907 68.8622 178.831 69.8686L178.807 70.17C178.714 71.2621 178.529 72.4713 177.747 73.257C177.346 73.6621 176.851 73.8097 176.38 73.7629C176.665 76.2798 176.848 78.8112 177.02 81.3335L177.1 82.5391C177.484 88.3688 177.773 94.2364 177.697 100.076C177.627 105.533 176.554 110.829 173.223 115.26C170.188 119.295 165.832 122.269 160.904 123.4C158.249 124.01 155.537 124.053 152.849 123.664C151.546 123.475 150.235 123.185 148.998 122.728C147.629 122.22 146.646 121.473 145.724 120.353C145.289 119.822 145.499 118.692 146.366 118.798C147.678 118.958 148.876 119.15 150.133 119.54L150.314 119.597C151.566 120.001 152.864 120.301 154.174 120.429C156.856 120.69 159.58 120.427 162.15 119.61C166.334 118.278 169.938 115.309 172.248 111.578C174.989 107.157 175.299 102.137 175.26 97.0528C175.217 91.4736 175.037 85.8913 174.742 80.3179L174.692 79.3891C174.536 76.5211 174.385 73.6513 174.253 70.7814C174.212 69.8813 174.149 68.9739 174.036 68.0755C173.002 67.4669 172.076 66.6279 171.472 65.5927C170.259 66.0968 168.983 66.4605 167.809 66.7504C165.09 67.4223 162.266 67.5854 159.499 67.1646C158.752 67.4745 157.991 67.7469 157.218 67.9813C157.009 68.0744 156.8 68.1658 156.591 68.2555C154.727 69.0567 152.837 69.7354 150.869 70.2323L150.386 70.3534C149.351 70.6099 148.226 70.8624 147.124 70.9417C146.943 71.0119 146.748 71.0713 146.534 71.1235C145.531 71.3684 144.49 71.4458 143.461 71.3594C142.459 71.2748 141.735 70.2575 142.287 69.3051C142.69 68.6102 143.097 67.917 143.508 67.2257C142.08 67.8234 140.605 68.3203 139.117 68.7416C137.616 69.1665 136.093 69.5248 134.567 69.8542C133.752 70.0289 132.933 70.1837 132.12 70.3584C131.537 70.4826 130.643 70.5474 130.168 70.9327C129.643 71.3558 129.494 72.3424 129.295 72.9509C129.034 73.7413 128.788 74.5353 128.564 75.3382C128.118 76.9406 127.753 78.5663 127.47 80.2083C127.186 81.8521 126.996 83.512 126.891 85.1774C126.785 86.8409 126.831 88.5153 126.661 90.1717C126.57 91.0503 125.631 91.5022 124.937 90.8882C124.856 90.8162 124.774 90.7434 124.693 90.6698L124.572 90.5587C123.979 90.0186 123.403 89.4461 122.929 88.8016C122.843 88.6827 122.76 88.5585 122.683 88.4325C122.671 88.4325 122.66 88.4289 122.647 88.4199L122.516 88.3204C121.066 87.2366 118.645 85.8236 117.232 87.6241C116.782 88.1977 116.551 88.9281 116.36 89.6327L116.024 90.8938C115.807 91.717 115.602 92.5448 115.483 93.3872C115.212 95.274 115.348 97.4488 116.641 98.9612C117.157 99.5661 117.868 99.9982 118.662 100.112C119.105 100.173 119.542 100.097 119.981 100.041C120.427 99.9856 120.857 100.076 121.303 100.032C122.013 99.9622 122.323 100.816 122.058 101.352C121.914 101.64 121.746 101.889 121.554 102.099C121.708 102.232 121.855 102.377 121.997 102.528C122.416 102.663 122.792 102.953 123.074 103.336C123.301 103.646 123.419 103.982 123.439 104.337C123.464 104.425 123.486 104.515 123.506 104.607L123.89 105.234C123.975 105.372 124.059 105.507 124.143 105.641C125.122 107.189 126.208 108.5 127.557 109.735C128.857 110.923 130.267 111.987 131.487 113.262L131.631 113.413C132.769 114.618 133.968 116.076 133.523 117.827C133.408 118.278 132.783 118.602 132.374 118.297C131.061 117.318 130.399 115.766 129.285 114.578C128.138 113.354 126.867 112.253 125.717 111.033C124.629 109.881 123.771 108.575 123.124 107.139C122.866 107.425 122.49 107.628 121.968 107.707C121.072 107.843 120.237 107.315 119.846 106.535C119.595 106.647 119.339 106.748 119.081 106.827C117.723 107.245 116.868 105.727 117.381 104.605C117.655 104.004 117.997 103.482 118.422 103.043C117.094 102.859 115.743 102.169 114.87 101.309C112.68 99.1466 112.379 95.8969 112.872 93.0073C113.134 91.4751 113.585 89.925 114.171 88.4865C114.273 88.2362 114.383 87.9842 114.503 87.7357C114.436 87.7339 114.368 87.7051 114.325 87.6493C113.929 87.1056 113.447 86.6609 113.153 86.0524C112.883 85.4942 112.582 84.9289 112.368 84.3474C111.929 83.1573 111.714 81.8142 111.571 80.5558C111.275 77.9794 111.39 75.4193 111.782 72.8591C112.451 68.4985 114.065 64.3256 116.443 60.664C116.314 60.5956 116.19 60.5131 116.074 60.4155L116.017 60.3655L115.924 60.2812C115.245 59.6642 115.304 58.5078 115.924 57.8829L116.12 57.6857C116.368 57.4382 116.582 57.2421 116.982 56.9726C117.041 56.9328 117.102 56.8954 117.163 56.8605C116.953 56.4712 116.88 56.0161 117.026 55.5139C117.535 53.7647 120.04 53.8266 121.628 54.5894C123.385 53.0143 125.333 51.6469 127.444 50.5396C132.473 47.9039 138.159 46.0657 143.71 44.9422ZM117.718 91.0142C118.657 90.7064 119.904 91.3527 120.748 91.7416C121.818 92.2349 122.728 92.9641 123.61 93.7346C124.049 94.1199 124.127 94.7501 124.018 95.2884C124.007 95.3424 123.997 95.3982 123.984 95.454C123.867 96.0283 123.23 96.4802 122.665 96.464C121.484 96.4316 120.922 95.4072 120.253 94.5394C120.174 94.6798 120.076 94.8095 119.954 94.9067L119.871 94.9715C119.594 95.1837 119.288 95.3534 118.922 95.337C118.662 95.3244 118.413 95.2578 118.183 95.1371C117.61 94.8329 117.357 94.0875 117.513 93.4808C117.61 93.0991 117.832 92.8002 118.122 92.5932L118.014 92.5188C117.783 92.3569 117.571 92.1863 117.407 91.9344L117.37 91.8748H117.384C117.205 91.5652 117.322 91.1439 117.718 91.0142Z" fill="black"/>
<path fill-rule="evenodd" clip-rule="evenodd" d="M159.349 111.072C160.706 110.882 162.166 110.112 163.462 110.738C164.069 111.031 164.356 112.032 163.946 112.589C163.321 113.438 162.674 113.579 161.659 113.661C160.897 113.722 160.131 113.727 159.372 113.639L159.178 113.615C157.823 113.439 156.414 113.06 155.364 112.147C155.149 111.96 155.26 111.556 155.535 111.498C156.782 111.235 158.087 111.248 159.349 111.072ZM157.751 107.938C157.751 107.927 157.767 107.927 157.768 107.938C157.801 108.716 158.019 109.437 158.422 110.102C158.427 110.112 158.413 110.12 158.407 110.111C158.004 109.445 157.784 108.717 157.751 107.938ZM162.03 91.8861C163.386 92.7125 165.452 94.6394 163.994 96.6882C162.276 98.4946 159.804 96.4234 158.586 95.4867C157.456 94.7607 156.187 96.6278 157.235 97.4755C166.038 104.01 169.611 92.1022 162.716 90.9145C161.957 90.7836 161.675 91.6304 162.03 91.8861ZM168.971 82.638C169.289 82.638 169.594 82.7464 169.871 82.9469C170.144 83.1442 170.391 83.4322 170.597 83.7915C170.986 84.4712 171.23 85.4098 171.23 86.4477C171.23 87.4855 170.986 88.4241 170.597 89.1038C170.391 89.4631 170.144 89.7511 169.871 89.9484C169.594 90.1489 169.289 90.2573 168.971 90.2573C168.652 90.2573 168.348 90.1489 168.07 89.9484C167.797 89.7511 167.55 89.4631 167.344 89.1038C166.955 88.4241 166.711 87.4855 166.711 86.4477C166.711 85.4098 166.955 84.4712 167.344 83.7915C167.55 83.4322 167.797 83.1442 168.07 82.9469C168.348 82.7464 168.652 82.638 168.971 82.638ZM154.224 83.6966L154.344 83.6738C155.044 83.5463 155.397 83.5892 156.006 84.0671C156.464 84.4263 156.333 85.1337 156.006 85.5114C155.437 86.1696 154.881 86.053 154.102 86.0781L154.047 86.0801C153.397 86.1066 152.747 86.1251 152.097 86.135C151.92 86.1379 151.742 86.1372 151.564 86.1383C151.583 87.7876 150.634 89.0434 149.385 89.9981C148.578 90.6155 147.556 89.9033 147.268 89.1348C147.03 88.4989 146.979 87.717 147.102 87.0208C147.148 86.7642 147.244 86.4856 147.389 86.2481L147.43 86.1844L147.424 86.0933C147.422 86.0708 147.424 86.049 147.423 86.0265C146.263 85.9558 145.111 85.8392 143.958 85.6927L143.574 85.6428C142.59 85.5123 141.145 85.4703 140.349 84.8288C140.324 84.8083 140.333 84.7635 140.36 84.7493C140.797 84.513 141.241 84.5263 141.731 84.5046L141.801 84.5012C142.333 84.4736 142.864 84.4506 143.396 84.4324L143.929 84.4157C145.29 84.3766 146.653 84.3103 148.013 84.2378C148.25 84.2252 148.486 84.2102 148.723 84.1957C148.971 84.0916 149.234 84.0293 149.494 84.0178C149.71 84.008 149.917 84.0379 150.112 84.1C150.609 84.0616 151.105 84.0196 151.601 83.9746L152.097 83.9285C152.797 83.8617 153.533 83.8325 154.224 83.6966ZM162.82 71.3351C164.317 70.5978 166.136 70.5798 167.677 71.1899L167.78 71.2314C169.336 71.879 171.212 73.3748 170.805 75.2379C170.434 76.9433 167.766 76.6543 167.631 75.0424C166.769 73.8459 164.838 73.5834 163.623 74.3442C162.887 74.8059 162.381 75.5831 162.036 76.367C161.741 77.0346 161.686 77.859 161.233 78.4405C161.219 78.4594 161.189 78.4628 161.168 78.4578C159.819 78.1449 159.788 75.9957 160.018 74.9533C160.352 73.4377 161.424 72.0232 162.82 71.3351Z" fill="black"/>
<path fill-rule="evenodd" clip-rule="evenodd" d="M181.115 87.1897C179.403 98.8002 167.451 100.084 165.328 88.5578C165.668 88.4082 165.914 88.1136 165.862 87.5418C165.85 85.0299 166.628 82.375 168.888 80.9781C171.224 79.5367 173.957 79.3938 176.66 79.4301C181.818 79.307 181.709 83.6292 181.115 87.1897M163.457 82.1401C161.838 82.0717 159.79 82.1289 158.34 83.1177C157.941 82.0414 156.905 80.8922 155.859 80.2778C159.749 80.3919 163.753 80.0081 167.672 79.7101C166.734 80.3512 165.861 81.3144 165.294 82.428C164.768 82.1466 164.014 82.1729 163.457 82.1401M156.322 88.4206C151.833 103.91 140.629 97.159 139.408 95.1739C137.204 91.8889 136.79 83.9034 138.709 81.7683C141.456 79.8376 145.345 80.3345 148.591 80.2871C154.553 80.3678 158.787 82.1559 156.322 88.4206M186.415 81.2963C185.195 81.1364 183.892 81.1042 182.758 81.6425C182.409 80.1548 181.313 78.9111 180.076 78.3638C179.926 78.1755 179.948 78.0743 179.437 78.1025C176.295 77.1559 172.779 77.6568 169.76 78.6275C164.992 79.0301 159.99 79.3475 155.181 79.9022C150.677 77.8743 137.085 77.577 136.24 82.5754C135.177 82.4161 133.368 81.5777 132.475 82.715C125.925 81.6018 119.158 83.1489 112.58 83.8379C110.925 84.1436 110.072 87.4379 111.951 87.3929C113.008 87.1054 111.919 85.3416 113.342 85.2089C119.688 84.5139 125.896 83.528 132.307 83.4126C132.084 84.5226 136.548 84.5948 136.613 83.9466C136.623 83.9515 136.633 83.9547 136.643 83.959C135.54 88.0801 136.535 94.011 138.529 96.5665C141.321 99.9127 148.333 100.873 151.442 98.7197C155.453 96.7326 159.625 86.7581 158.453 83.4443C160.58 82.7684 162.682 82.9713 164.89 83.3156C164.384 84.7467 163.512 88.2697 164.767 88.5752C164.537 95.5698 170.886 99.9341 176.739 97.0648C181.805 94.6805 183.577 87.1337 182.957 82.5529C183.588 83.7747 188.883 82.4445 186.415 81.2963" fill="black"/>
</svg>
